<?xml version="1.0" encoding="utf-8" standalone="no"?>
<!DOCTYPE svg PUBLIC "-//W3C//DTD SVG 1.1//EN"
  "http://www.w3.org/Graphics/SVG/1.1/DTD/svg11.dtd">
<svg xmlns:xlink="http://www.w3.org/1999/xlink" width="1288.125937pt" height="305.752pt" viewBox="0 0 1288.125937 305.752" xmlns="http://www.w3.org/2000/svg" version="1.1">
 <metadata>
  <rdf:RDF xmlns:dc="http://purl.org/dc/elements/1.1/" xmlns:cc="http://creativecommons.org/ns#" xmlns:rdf="http://www.w3.org/1999/02/22-rdf-syntax-ns#">
   <cc:Work>
    <dc:type rdf:resource="http://purl.org/dc/dcmitype/StillImage"/>
    <dc:date>2026-07-08T08:17:03.010206</dc:date>
    <dc:format>image/svg+xml</dc:format>
    <dc:creator>
     <cc:Agent>
      <dc:title>Matplotlib v3.11.0, https://matplotlib.org/</dc:title>
     </cc:Agent>
    </dc:creator>
   </cc:Work>
  </rdf:RDF>
 </metadata>
 <defs>
  <style type="text/css">*{stroke-linejoin: round; stroke-linecap: butt}</style>
 </defs>
 <g id="figure_1">
  <g id="patch_1">
   <path d="M 0 305.752 
L 1288.125937 305.752 
L 1288.125937 0 
L 0 0 
z
" style="fill: #ffffff"/>
  </g>
  <g id="axes_1">
   <g id="patch_2">
    <path d="M 47.288281 237.556094 
L 282.575812 237.556094 
L 282.575812 94.237273 
L 47.288281 94.237273 
z
" style="fill: #ffffff"/>
   </g>
   <g id="patch_3">
    <path d="M 57.983169 237.556094 
L 93.632795 237.556094 
L 93.632795 237.556094 
L 57.983169 237.556094 
z
" clip-path="url(#p4ca81c3091)" style="fill: #8ab6d6; stroke: #ffffff; stroke-linejoin: miter"/>
   </g>
   <g id="patch_4">
    <path d="M 102.545201 237.556094 
L 138.194827 237.556094 
L 138.194827 237.556094 
L 102.545201 237.556094 
z
" clip-path="url(#p4ca81c3091)" style="fill: #8ab6d6; stroke: #ffffff; stroke-linejoin: miter"/>
   </g>
   <g id="patch_5">
    <path d="M 147.107234 237.556094 
L 182.75686 237.556094 
L 182.75686 233.256529 
L 147.107234 233.256529 
z
" clip-path="url(#p4ca81c3091)" style="fill: #8ab6d6; stroke: #ffffff; stroke-linejoin: miter"/>
   </g>
   <g id="patch_6">
    <path d="M 191.669266 237.556094 
L 227.318892 237.556094 
L 227.318892 207.459141 
L 191.669266 207.459141 
z
" clip-path="url(#p4ca81c3091)" style="fill: #8ab6d6; stroke: #ffffff; stroke-linejoin: miter"/>
   </g>
   <g id="patch_7">
    <path d="M 236.231299 237.556094 
L 271.880925 237.556094 
L 271.880925 128.63379 
L 236.231299 128.63379 
z
" clip-path="url(#p4ca81c3091)" style="fill: #3ca370; stroke: #ffffff; stroke-linejoin: miter"/>
   </g>
   <g id="matplotlib.axis_1">
    <g id="xtick_1">
     <g id="line2d_1">
      <defs>
       <path id="m6c164852e8" d="M 0 0 
L 0 3.5 
" style="stroke: #000000; stroke-width: 0.8"/>
      </defs>
      <g>
       <use xlink:href="#m6c164852e8" x="75.807982" y="237.556094" style="stroke: #000000; stroke-width: 0.8"/>
      </g>
     </g>
     <g id="text_1">
      <!-- L0 -->
      <g transform="translate(69.840795 253.154727) scale(0.1 -0.1)">
       <defs>
        <path id="DejaVuSans-2f" d="M 628 4666 
L 1259 4666 
L 1259 531 
L 3531 531 
L 3531 0 
L 628 0 
L 628 4666 
z
" transform="scale(0.015625)"/>
        <path id="DejaVuSans-13" d="M 2034 4250 
Q 1547 4250 1301 3770 
Q 1056 3291 1056 2328 
Q 1056 1369 1301 889 
Q 1547 409 2034 409 
Q 2525 409 2770 889 
Q 3016 1369 3016 2328 
Q 3016 3291 2770 3770 
Q 2525 4250 2034 4250 
z
M 2034 4750 
Q 2819 4750 3233 4129 
Q 3647 3509 3647 2328 
Q 3647 1150 3233 529 
Q 2819 -91 2034 -91 
Q 1250 -91 836 529 
Q 422 1150 422 2328 
Q 422 3509 836 4129 
Q 1250 4750 2034 4750 
z
" transform="scale(0.015625)"/>
       </defs>
       <use xlink:href="#DejaVuSans-2f"/>
       <use xlink:href="#DejaVuSans-13" transform="translate(55.71875 0)"/>
      </g>
      <!-- 5x4 -->
      <g transform="translate(66.486107 265.15668) scale(0.1 -0.1)">
       <defs>
        <path id="DejaVuSans-18" d="M 691 4666 
L 3169 4666 
L 3169 4134 
L 1269 4134 
L 1269 2991 
Q 1406 3038 1543 3061 
Q 1681 3084 1819 3084 
Q 2600 3084 3056 2656 
Q 3513 2228 3513 1497 
Q 3513 744 3044 326 
Q 2575 -91 1722 -91 
Q 1428 -91 1123 -41 
Q 819 9 494 109 
L 494 744 
Q 775 591 1075 516 
Q 1375 441 1709 441 
Q 2250 441 2565 725 
Q 2881 1009 2881 1497 
Q 2881 1984 2565 2268 
Q 2250 2553 1709 2553 
Q 1456 2553 1204 2497 
Q 953 2441 691 2322 
L 691 4666 
z
" transform="scale(0.015625)"/>
        <path id="DejaVuSans-5b" d="M 3513 3500 
L 2247 1797 
L 3578 0 
L 2900 0 
L 1881 1375 
L 863 0 
L 184 0 
L 1544 1831 
L 300 3500 
L 978 3500 
L 1906 2253 
L 2834 3500 
L 3513 3500 
z
" transform="scale(0.015625)"/>
        <path id="DejaVuSans-17" d="M 2419 4116 
L 825 1625 
L 2419 1625 
L 2419 4116 
z
M 2253 4666 
L 3047 4666 
L 3047 1625 
L 3713 1625 
L 3713 1100 
L 3047 1100 
L 3047 0 
L 2419 0 
L 2419 1100 
L 313 1100 
L 313 1709 
L 2253 4666 
z
" transform="scale(0.015625)"/>
       </defs>
       <use xlink:href="#DejaVuSans-18"/>
       <use xlink:href="#DejaVuSans-5b" transform="translate(63.625 0)"/>
       <use xlink:href="#DejaVuSans-17" transform="translate(122.8125 0)"/>
      </g>
     </g>
    </g>
    <g id="xtick_2">
     <g id="line2d_2">
      <g>
       <use xlink:href="#m6c164852e8" x="120.370014" y="237.556094" style="stroke: #000000; stroke-width: 0.8"/>
      </g>
     </g>
     <g id="text_2">
      <!-- L1 -->
      <g transform="translate(114.402827 253.154727) scale(0.1 -0.1)">
       <defs>
        <path id="DejaVuSans-14" d="M 794 531 
L 1825 531 
L 1825 4091 
L 703 3866 
L 703 4441 
L 1819 4666 
L 2450 4666 
L 2450 531 
L 3481 531 
L 3481 0 
L 794 0 
L 794 531 
z
" transform="scale(0.015625)"/>
       </defs>
       <use xlink:href="#DejaVuSans-2f"/>
       <use xlink:href="#DejaVuSans-14" transform="translate(55.71875 0)"/>
      </g>
      <!-- 5x5 -->
      <g transform="translate(111.048139 265.15668) scale(0.1 -0.1)">
       <use xlink:href="#DejaVuSans-18"/>
       <use xlink:href="#DejaVuSans-5b" transform="translate(63.625 0)"/>
       <use xlink:href="#DejaVuSans-18" transform="translate(122.8125 0)"/>
      </g>
     </g>
    </g>
    <g id="xtick_3">
     <g id="line2d_3">
      <g>
       <use xlink:href="#m6c164852e8" x="164.932047" y="237.556094" style="stroke: #000000; stroke-width: 0.8"/>
      </g>
     </g>
     <g id="text_3">
      <!-- L2 -->
      <g transform="translate(158.964859 253.154727) scale(0.1 -0.1)">
       <defs>
        <path id="DejaVuSans-15" d="M 1228 531 
L 3431 531 
L 3431 0 
L 469 0 
L 469 531 
Q 828 903 1448 1529 
Q 2069 2156 2228 2338 
Q 2531 2678 2651 2914 
Q 2772 3150 2772 3378 
Q 2772 3750 2511 3984 
Q 2250 4219 1831 4219 
Q 1534 4219 1204 4116 
Q 875 4013 500 3803 
L 500 4441 
Q 881 4594 1212 4672 
Q 1544 4750 1819 4750 
Q 2544 4750 2975 4387 
Q 3406 4025 3406 3419 
Q 3406 3131 3298 2873 
Q 3191 2616 2906 2266 
Q 2828 2175 2409 1742 
Q 1991 1309 1228 531 
z
" transform="scale(0.015625)"/>
       </defs>
       <use xlink:href="#DejaVuSans-2f"/>
       <use xlink:href="#DejaVuSans-15" transform="translate(55.71875 0)"/>
      </g>
      <!-- 5x6 -->
      <g transform="translate(155.610172 265.15668) scale(0.1 -0.1)">
       <defs>
        <path id="DejaVuSans-19" d="M 2113 2584 
Q 1688 2584 1439 2293 
Q 1191 2003 1191 1497 
Q 1191 994 1439 701 
Q 1688 409 2113 409 
Q 2538 409 2786 701 
Q 3034 994 3034 1497 
Q 3034 2003 2786 2293 
Q 2538 2584 2113 2584 
z
M 3366 4563 
L 3366 3988 
Q 3128 4100 2886 4159 
Q 2644 4219 2406 4219 
Q 1781 4219 1451 3797 
Q 1122 3375 1075 2522 
Q 1259 2794 1537 2939 
Q 1816 3084 2150 3084 
Q 2853 3084 3261 2657 
Q 3669 2231 3669 1497 
Q 3669 778 3244 343 
Q 2819 -91 2113 -91 
Q 1303 -91 875 529 
Q 447 1150 447 2328 
Q 447 3434 972 4092 
Q 1497 4750 2381 4750 
Q 2619 4750 2861 4703 
Q 3103 4656 3366 4563 
z
" transform="scale(0.015625)"/>
       </defs>
       <use xlink:href="#DejaVuSans-18"/>
       <use xlink:href="#DejaVuSans-5b" transform="translate(63.625 0)"/>
       <use xlink:href="#DejaVuSans-19" transform="translate(122.8125 0)"/>
      </g>
     </g>
    </g>
    <g id="xtick_4">
     <g id="line2d_4">
      <g>
       <use xlink:href="#m6c164852e8" x="209.494079" y="237.556094" style="stroke: #000000; stroke-width: 0.8"/>
      </g>
     </g>
     <g id="text_4">
      <!-- L3 -->
      <g transform="translate(203.526892 253.154727) scale(0.1 -0.1)">
       <defs>
        <path id="DejaVuSans-16" d="M 2597 2516 
Q 3050 2419 3304 2112 
Q 3559 1806 3559 1356 
Q 3559 666 3084 287 
Q 2609 -91 1734 -91 
Q 1441 -91 1130 -33 
Q 819 25 488 141 
L 488 750 
Q 750 597 1062 519 
Q 1375 441 1716 441 
Q 2309 441 2620 675 
Q 2931 909 2931 1356 
Q 2931 1769 2642 2001 
Q 2353 2234 1838 2234 
L 1294 2234 
L 1294 2753 
L 1863 2753 
Q 2328 2753 2575 2939 
Q 2822 3125 2822 3475 
Q 2822 3834 2567 4026 
Q 2313 4219 1838 4219 
Q 1578 4219 1281 4162 
Q 984 4106 628 3988 
L 628 4550 
Q 988 4650 1302 4700 
Q 1616 4750 1894 4750 
Q 2613 4750 3031 4423 
Q 3450 4097 3450 3541 
Q 3450 3153 3228 2886 
Q 3006 2619 2597 2516 
z
" transform="scale(0.015625)"/>
       </defs>
       <use xlink:href="#DejaVuSans-2f"/>
       <use xlink:href="#DejaVuSans-16" transform="translate(55.71875 0)"/>
      </g>
      <!-- 5x7 -->
      <g transform="translate(200.172204 265.15668) scale(0.1 -0.1)">
       <defs>
        <path id="DejaVuSans-1a" d="M 525 4666 
L 3525 4666 
L 3525 4397 
L 1831 0 
L 1172 0 
L 2766 4134 
L 525 4134 
L 525 4666 
z
" transform="scale(0.015625)"/>
       </defs>
       <use xlink:href="#DejaVuSans-18"/>
       <use xlink:href="#DejaVuSans-5b" transform="translate(63.625 0)"/>
       <use xlink:href="#DejaVuSans-1a" transform="translate(122.8125 0)"/>
      </g>
     </g>
    </g>
    <g id="xtick_5">
     <g id="line2d_5">
      <g>
       <use xlink:href="#m6c164852e8" x="254.056112" y="237.556094" style="stroke: #000000; stroke-width: 0.8"/>
      </g>
     </g>
     <g id="text_5">
      <!-- L4 -->
      <g transform="translate(248.088924 253.154727) scale(0.1 -0.1)">
       <use xlink:href="#DejaVuSans-2f"/>
       <use xlink:href="#DejaVuSans-17" transform="translate(55.71875 0)"/>
      </g>
      <!-- 5x8 -->
      <g transform="translate(244.734237 265.15668) scale(0.1 -0.1)">
       <defs>
        <path id="DejaVuSans-1b" d="M 2034 2216 
Q 1584 2216 1326 1975 
Q 1069 1734 1069 1313 
Q 1069 891 1326 650 
Q 1584 409 2034 409 
Q 2484 409 2743 651 
Q 3003 894 3003 1313 
Q 3003 1734 2745 1975 
Q 2488 2216 2034 2216 
z
M 1403 2484 
Q 997 2584 770 2862 
Q 544 3141 544 3541 
Q 544 4100 942 4425 
Q 1341 4750 2034 4750 
Q 2731 4750 3128 4425 
Q 3525 4100 3525 3541 
Q 3525 3141 3298 2862 
Q 3072 2584 2669 2484 
Q 3125 2378 3379 2068 
Q 3634 1759 3634 1313 
Q 3634 634 3220 271 
Q 2806 -91 2034 -91 
Q 1263 -91 848 271 
Q 434 634 434 1313 
Q 434 1759 690 2068 
Q 947 2378 1403 2484 
z
M 1172 3481 
Q 1172 3119 1398 2916 
Q 1625 2713 2034 2713 
Q 2441 2713 2670 2916 
Q 2900 3119 2900 3481 
Q 2900 3844 2670 4047 
Q 2441 4250 2034 4250 
Q 1625 4250 1398 4047 
Q 1172 3844 1172 3481 
z
" transform="scale(0.015625)"/>
       </defs>
       <use xlink:href="#DejaVuSans-18"/>
       <use xlink:href="#DejaVuSans-5b" transform="translate(63.625 0)"/>
       <use xlink:href="#DejaVuSans-1b" transform="translate(122.8125 0)"/>
      </g>
     </g>
    </g>
   </g>
   <g id="matplotlib.axis_2">
    <g id="ytick_1">
     <g id="line2d_6">
      <path d="M 47.288281 237.556094 
L 282.575812 237.556094 
" clip-path="url(#p4ca81c3091)" style="fill: none; stroke: #b0b0b0; stroke-opacity: 0.25; stroke-width: 0.8; stroke-linecap: square"/>
     </g>
     <g id="line2d_7">
      <defs>
       <path id="m8f926a991b" d="M 0 0 
L -3.5 0 
" style="stroke: #000000; stroke-width: 0.8"/>
      </defs>
      <g>
       <use xlink:href="#m8f926a991b" x="47.288281" y="237.556094" style="stroke: #000000; stroke-width: 0.8"/>
      </g>
     </g>
     <g id="text_6">
      <!-- 0 -->
      <g transform="translate(33.925781 241.354922) scale(0.1 -0.1)">
       <use xlink:href="#DejaVuSans-13"/>
      </g>
     </g>
    </g>
    <g id="ytick_2">
     <g id="line2d_8">
      <path d="M 47.288281 208.89233 
L 282.575812 208.89233 
" clip-path="url(#p4ca81c3091)" style="fill: none; stroke: #b0b0b0; stroke-opacity: 0.25; stroke-width: 0.8; stroke-linecap: square"/>
     </g>
     <g id="line2d_9">
      <g>
       <use xlink:href="#m8f926a991b" x="47.288281" y="208.89233" style="stroke: #000000; stroke-width: 0.8"/>
      </g>
     </g>
     <g id="text_7">
      <!-- 20 -->
      <g transform="translate(27.563281 212.691158) scale(0.1 -0.1)">
       <use xlink:href="#DejaVuSans-15"/>
       <use xlink:href="#DejaVuSans-13" transform="translate(63.625 0)"/>
      </g>
     </g>
    </g>
    <g id="ytick_3">
     <g id="line2d_10">
      <path d="M 47.288281 180.228566 
L 282.575812 180.228566 
" clip-path="url(#p4ca81c3091)" style="fill: none; stroke: #b0b0b0; stroke-opacity: 0.25; stroke-width: 0.8; stroke-linecap: square"/>
     </g>
     <g id="line2d_11">
      <g>
       <use xlink:href="#m8f926a991b" x="47.288281" y="180.228566" style="stroke: #000000; stroke-width: 0.8"/>
      </g>
     </g>
     <g id="text_8">
      <!-- 40 -->
      <g transform="translate(27.563281 184.027394) scale(0.1 -0.1)">
       <use xlink:href="#DejaVuSans-17"/>
       <use xlink:href="#DejaVuSans-13" transform="translate(63.625 0)"/>
      </g>
     </g>
    </g>
    <g id="ytick_4">
     <g id="line2d_12">
      <path d="M 47.288281 151.564802 
L 282.575812 151.564802 
" clip-path="url(#p4ca81c3091)" style="fill: none; stroke: #b0b0b0; stroke-opacity: 0.25; stroke-width: 0.8; stroke-linecap: square"/>
     </g>
     <g id="line2d_13">
      <g>
       <use xlink:href="#m8f926a991b" x="47.288281" y="151.564802" style="stroke: #000000; stroke-width: 0.8"/>
      </g>
     </g>
     <g id="text_9">
      <!-- 60 -->
      <g transform="translate(27.563281 155.36363) scale(0.1 -0.1)">
       <use xlink:href="#DejaVuSans-19"/>
       <use xlink:href="#DejaVuSans-13" transform="translate(63.625 0)"/>
      </g>
     </g>
    </g>
    <g id="ytick_5">
     <g id="line2d_14">
      <path d="M 47.288281 122.901038 
L 282.575812 122.901038 
" clip-path="url(#p4ca81c3091)" style="fill: none; stroke: #b0b0b0; stroke-opacity: 0.25; stroke-width: 0.8; stroke-linecap: square"/>
     </g>
     <g id="line2d_15">
      <g>
       <use xlink:href="#m8f926a991b" x="47.288281" y="122.901038" style="stroke: #000000; stroke-width: 0.8"/>
      </g>
     </g>
     <g id="text_10">
      <!-- 80 -->
      <g transform="translate(27.563281 126.699866) scale(0.1 -0.1)">
       <use xlink:href="#DejaVuSans-1b"/>
       <use xlink:href="#DejaVuSans-13" transform="translate(63.625 0)"/>
      </g>
     </g>
    </g>
    <g id="ytick_6">
     <g id="line2d_16">
      <path d="M 47.288281 94.237273 
L 282.575812 94.237273 
" clip-path="url(#p4ca81c3091)" style="fill: none; stroke: #b0b0b0; stroke-opacity: 0.25; stroke-width: 0.8; stroke-linecap: square"/>
     </g>
     <g id="line2d_17">
      <g>
       <use xlink:href="#m8f926a991b" x="47.288281" y="94.237273" style="stroke: #000000; stroke-width: 0.8"/>
      </g>
     </g>
     <g id="text_11">
      <!-- 100 -->
      <g transform="translate(21.200781 98.036102) scale(0.1 -0.1)">
       <use xlink:href="#DejaVuSans-14"/>
       <use xlink:href="#DejaVuSans-13" transform="translate(63.625 0)"/>
       <use xlink:href="#DejaVuSans-13" transform="translate(127.25 0)"/>
      </g>
     </g>
    </g>
    <g id="text_12">
     <!-- Selected in simulations (%) -->
     <g transform="translate(14.798437 234.218559) rotate(-90) scale(0.1 -0.1)">
      <defs>
       <path id="DejaVuSans-36" d="M 3425 4513 
L 3425 3897 
Q 3066 4069 2747 4153 
Q 2428 4238 2131 4238 
Q 1616 4238 1336 4038 
Q 1056 3838 1056 3469 
Q 1056 3159 1242 3001 
Q 1428 2844 1947 2747 
L 2328 2669 
Q 3034 2534 3370 2195 
Q 3706 1856 3706 1288 
Q 3706 609 3251 259 
Q 2797 -91 1919 -91 
Q 1588 -91 1214 -16 
Q 841 59 441 206 
L 441 856 
Q 825 641 1194 531 
Q 1563 422 1919 422 
Q 2459 422 2753 634 
Q 3047 847 3047 1241 
Q 3047 1584 2836 1778 
Q 2625 1972 2144 2069 
L 1759 2144 
Q 1053 2284 737 2584 
Q 422 2884 422 3419 
Q 422 4038 858 4394 
Q 1294 4750 2059 4750 
Q 2388 4750 2728 4690 
Q 3069 4631 3425 4513 
z
" transform="scale(0.015625)"/>
       <path id="DejaVuSans-48" d="M 3597 1894 
L 3597 1613 
L 953 1613 
Q 991 1019 1311 708 
Q 1631 397 2203 397 
Q 2534 397 2845 478 
Q 3156 559 3463 722 
L 3463 178 
Q 3153 47 2828 -22 
Q 2503 -91 2169 -91 
Q 1331 -91 842 396 
Q 353 884 353 1716 
Q 353 2575 817 3079 
Q 1281 3584 2069 3584 
Q 2775 3584 3186 3129 
Q 3597 2675 3597 1894 
z
M 3022 2063 
Q 3016 2534 2758 2815 
Q 2500 3097 2075 3097 
Q 1594 3097 1305 2825 
Q 1016 2553 972 2059 
L 3022 2063 
z
" transform="scale(0.015625)"/>
       <path id="DejaVuSans-4f" d="M 603 4863 
L 1178 4863 
L 1178 0 
L 603 0 
L 603 4863 
z
" transform="scale(0.015625)"/>
       <path id="DejaVuSans-46" d="M 3122 3366 
L 3122 2828 
Q 2878 2963 2633 3030 
Q 2388 3097 2138 3097 
Q 1578 3097 1268 2742 
Q 959 2388 959 1747 
Q 959 1106 1268 751 
Q 1578 397 2138 397 
Q 2388 397 2633 464 
Q 2878 531 3122 666 
L 3122 134 
Q 2881 22 2623 -34 
Q 2366 -91 2075 -91 
Q 1284 -91 818 406 
Q 353 903 353 1747 
Q 353 2603 823 3093 
Q 1294 3584 2113 3584 
Q 2378 3584 2631 3529 
Q 2884 3475 3122 3366 
z
" transform="scale(0.015625)"/>
       <path id="DejaVuSans-57" d="M 1172 4494 
L 1172 3500 
L 2356 3500 
L 2356 3053 
L 1172 3053 
L 1172 1153 
Q 1172 725 1289 603 
Q 1406 481 1766 481 
L 2356 481 
L 2356 0 
L 1766 0 
Q 1100 0 847 248 
Q 594 497 594 1153 
L 594 3053 
L 172 3053 
L 172 3500 
L 594 3500 
L 594 4494 
L 1172 4494 
z
" transform="scale(0.015625)"/>
       <path id="DejaVuSans-47" d="M 2906 2969 
L 2906 4863 
L 3481 4863 
L 3481 0 
L 2906 0 
L 2906 525 
Q 2725 213 2448 61 
Q 2172 -91 1784 -91 
Q 1150 -91 751 415 
Q 353 922 353 1747 
Q 353 2572 751 3078 
Q 1150 3584 1784 3584 
Q 2172 3584 2448 3432 
Q 2725 3281 2906 2969 
z
M 947 1747 
Q 947 1113 1208 752 
Q 1469 391 1925 391 
Q 2381 391 2643 752 
Q 2906 1113 2906 1747 
Q 2906 2381 2643 2742 
Q 2381 3103 1925 3103 
Q 1469 3103 1208 2742 
Q 947 2381 947 1747 
z
" transform="scale(0.015625)"/>
       <path id="DejaVuSans-3" transform="scale(0.015625)"/>
       <path id="DejaVuSans-4c" d="M 603 3500 
L 1178 3500 
L 1178 0 
L 603 0 
L 603 3500 
z
M 603 4863 
L 1178 4863 
L 1178 4134 
L 603 4134 
L 603 4863 
z
" transform="scale(0.015625)"/>
       <path id="DejaVuSans-51" d="M 3513 2113 
L 3513 0 
L 2938 0 
L 2938 2094 
Q 2938 2591 2744 2837 
Q 2550 3084 2163 3084 
Q 1697 3084 1428 2787 
Q 1159 2491 1159 1978 
L 1159 0 
L 581 0 
L 581 3500 
L 1159 3500 
L 1159 2956 
Q 1366 3272 1645 3428 
Q 1925 3584 2291 3584 
Q 2894 3584 3203 3211 
Q 3513 2838 3513 2113 
z
" transform="scale(0.015625)"/>
       <path id="DejaVuSans-56" d="M 2834 3397 
L 2834 2853 
Q 2591 2978 2328 3040 
Q 2066 3103 1784 3103 
Q 1356 3103 1142 2972 
Q 928 2841 928 2578 
Q 928 2378 1081 2264 
Q 1234 2150 1697 2047 
L 1894 2003 
Q 2506 1872 2764 1633 
Q 3022 1394 3022 966 
Q 3022 478 2636 193 
Q 2250 -91 1575 -91 
Q 1294 -91 989 -36 
Q 684 19 347 128 
L 347 722 
Q 666 556 975 473 
Q 1284 391 1588 391 
Q 1994 391 2212 530 
Q 2431 669 2431 922 
Q 2431 1156 2273 1281 
Q 2116 1406 1581 1522 
L 1381 1569 
Q 847 1681 609 1914 
Q 372 2147 372 2553 
Q 372 3047 722 3315 
Q 1072 3584 1716 3584 
Q 2034 3584 2315 3537 
Q 2597 3491 2834 3397 
z
" transform="scale(0.015625)"/>
       <path id="DejaVuSans-50" d="M 3328 2828 
Q 3544 3216 3844 3400 
Q 4144 3584 4550 3584 
Q 5097 3584 5394 3201 
Q 5691 2819 5691 2113 
L 5691 0 
L 5113 0 
L 5113 2094 
Q 5113 2597 4934 2840 
Q 4756 3084 4391 3084 
Q 3944 3084 3684 2787 
Q 3425 2491 3425 1978 
L 3425 0 
L 2847 0 
L 2847 2094 
Q 2847 2600 2669 2842 
Q 2491 3084 2119 3084 
Q 1678 3084 1418 2786 
Q 1159 2488 1159 1978 
L 1159 0 
L 581 0 
L 581 3500 
L 1159 3500 
L 1159 2956 
Q 1356 3278 1631 3431 
Q 1906 3584 2284 3584 
Q 2666 3584 2933 3390 
Q 3200 3197 3328 2828 
z
" transform="scale(0.015625)"/>
       <path id="DejaVuSans-58" d="M 544 1381 
L 544 3500 
L 1119 3500 
L 1119 1403 
Q 1119 906 1312 657 
Q 1506 409 1894 409 
Q 2359 409 2629 706 
Q 2900 1003 2900 1516 
L 2900 3500 
L 3475 3500 
L 3475 0 
L 2900 0 
L 2900 538 
Q 2691 219 2414 64 
Q 2138 -91 1772 -91 
Q 1169 -91 856 284 
Q 544 659 544 1381 
z
M 1991 3584 
L 1991 3584 
z
" transform="scale(0.015625)"/>
       <path id="DejaVuSans-44" d="M 2194 1759 
Q 1497 1759 1228 1600 
Q 959 1441 959 1056 
Q 959 750 1161 570 
Q 1363 391 1709 391 
Q 2188 391 2477 730 
Q 2766 1069 2766 1631 
L 2766 1759 
L 2194 1759 
z
M 3341 1997 
L 3341 0 
L 2766 0 
L 2766 531 
Q 2569 213 2275 61 
Q 1981 -91 1556 -91 
Q 1019 -91 701 211 
Q 384 513 384 1019 
Q 384 1609 779 1909 
Q 1175 2209 1959 2209 
L 2766 2209 
L 2766 2266 
Q 2766 2663 2505 2880 
Q 2244 3097 1772 3097 
Q 1472 3097 1187 3025 
Q 903 2953 641 2809 
L 641 3341 
Q 956 3463 1253 3523 
Q 1550 3584 1831 3584 
Q 2591 3584 2966 3190 
Q 3341 2797 3341 1997 
z
" transform="scale(0.015625)"/>
       <path id="DejaVuSans-52" d="M 1959 3097 
Q 1497 3097 1228 2736 
Q 959 2375 959 1747 
Q 959 1119 1226 758 
Q 1494 397 1959 397 
Q 2419 397 2687 759 
Q 2956 1122 2956 1747 
Q 2956 2369 2687 2733 
Q 2419 3097 1959 3097 
z
M 1959 3584 
Q 2709 3584 3137 3096 
Q 3566 2609 3566 1747 
Q 3566 888 3137 398 
Q 2709 -91 1959 -91 
Q 1206 -91 779 398 
Q 353 888 353 1747 
Q 353 2609 779 3096 
Q 1206 3584 1959 3584 
z
" transform="scale(0.015625)"/>
       <path id="DejaVuSans-b" d="M 1984 4856 
Q 1566 4138 1362 3434 
Q 1159 2731 1159 2009 
Q 1159 1288 1364 580 
Q 1569 -128 1984 -844 
L 1484 -844 
Q 1016 -109 783 600 
Q 550 1309 550 2009 
Q 550 2706 781 3412 
Q 1013 4119 1484 4856 
L 1984 4856 
z
" transform="scale(0.015625)"/>
       <path id="DejaVuSans-8" d="M 4653 2053 
Q 4381 2053 4226 1822 
Q 4072 1591 4072 1178 
Q 4072 772 4226 539 
Q 4381 306 4653 306 
Q 4919 306 5073 539 
Q 5228 772 5228 1178 
Q 5228 1588 5073 1820 
Q 4919 2053 4653 2053 
z
M 4653 2450 
Q 5147 2450 5437 2106 
Q 5728 1763 5728 1178 
Q 5728 594 5436 251 
Q 5144 -91 4653 -91 
Q 4153 -91 3862 251 
Q 3572 594 3572 1178 
Q 3572 1766 3864 2108 
Q 4156 2450 4653 2450 
z
M 1428 4353 
Q 1159 4353 1004 4120 
Q 850 3888 850 3481 
Q 850 3069 1003 2837 
Q 1156 2606 1428 2606 
Q 1700 2606 1854 2837 
Q 2009 3069 2009 3481 
Q 2009 3884 1853 4118 
Q 1697 4353 1428 4353 
z
M 4250 4750 
L 4750 4750 
L 1831 -91 
L 1331 -91 
L 4250 4750 
z
M 1428 4750 
Q 1922 4750 2215 4408 
Q 2509 4066 2509 3481 
Q 2509 2891 2217 2550 
Q 1925 2209 1428 2209 
Q 931 2209 642 2551 
Q 353 2894 353 3481 
Q 353 4063 643 4406 
Q 934 4750 1428 4750 
z
" transform="scale(0.015625)"/>
       <path id="DejaVuSans-c" d="M 513 4856 
L 1013 4856 
Q 1481 4119 1714 3412 
Q 1947 2706 1947 2009 
Q 1947 1309 1714 600 
Q 1481 -109 1013 -844 
L 513 -844 
Q 928 -128 1133 580 
Q 1338 1288 1338 2009 
Q 1338 2731 1133 3434 
Q 928 4138 513 4856 
z
" transform="scale(0.015625)"/>
      </defs>
      <use xlink:href="#DejaVuSans-36"/>
      <use xlink:href="#DejaVuSans-48" transform="translate(63.484375 0)"/>
      <use xlink:href="#DejaVuSans-4f" transform="translate(125.015625 0)"/>
      <use xlink:href="#DejaVuSans-48" transform="translate(152.796875 0)"/>
      <use xlink:href="#DejaVuSans-46" transform="translate(214.328125 0)"/>
      <use xlink:href="#DejaVuSans-57" transform="translate(269.3125 0)"/>
      <use xlink:href="#DejaVuSans-48" transform="translate(308.515625 0)"/>
      <use xlink:href="#DejaVuSans-47" transform="translate(370.046875 0)"/>
      <use xlink:href="#DejaVuSans-3" transform="translate(433.53125 0)"/>
      <use xlink:href="#DejaVuSans-4c" transform="translate(465.3125 0)"/>
      <use xlink:href="#DejaVuSans-51" transform="translate(493.09375 0)"/>
      <use xlink:href="#DejaVuSans-3" transform="translate(556.46875 0)"/>
      <use xlink:href="#DejaVuSans-56" transform="translate(588.25 0)"/>
      <use xlink:href="#DejaVuSans-4c" transform="translate(640.34375 0)"/>
      <use xlink:href="#DejaVuSans-50" transform="translate(668.125 0)"/>
      <use xlink:href="#DejaVuSans-58" transform="translate(765.53125 0)"/>
      <use xlink:href="#DejaVuSans-4f" transform="translate(828.90625 0)"/>
      <use xlink:href="#DejaVuSans-44" transform="translate(856.6875 0)"/>
      <use xlink:href="#DejaVuSans-57" transform="translate(917.96875 0)"/>
      <use xlink:href="#DejaVuSans-4c" transform="translate(957.171875 0)"/>
      <use xlink:href="#DejaVuSans-52" transform="translate(984.953125 0)"/>
      <use xlink:href="#DejaVuSans-51" transform="translate(1046.140625 0)"/>
      <use xlink:href="#DejaVuSans-56" transform="translate(1109.515625 0)"/>
      <use xlink:href="#DejaVuSans-3" transform="translate(1161.609375 0)"/>
      <use xlink:href="#DejaVuSans-b" transform="translate(1193.390625 0)"/>
      <use xlink:href="#DejaVuSans-8" transform="translate(1232.40625 0)"/>
      <use xlink:href="#DejaVuSans-c" transform="translate(1327.421875 0)"/>
     </g>
    </g>
   </g>
   <g id="line2d_18">
    <path d="M 254.056112 237.556094 
L 254.056112 94.237273 
" clip-path="url(#p4ca81c3091)" style="fill: none; stroke-dasharray: 4.44,1.92; stroke-dashoffset: 0; stroke: #000000; stroke-width: 1.2"/>
   </g>
   <g id="patch_8">
    <path d="M 47.288281 237.556094 
L 47.288281 94.237273 
" style="fill: none; stroke: #000000; stroke-width: 0.8; stroke-linejoin: miter; stroke-linecap: square"/>
   </g>
   <g id="patch_9">
    <path d="M 282.575812 237.556094 
L 282.575812 94.237273 
" style="fill: none; stroke: #000000; stroke-width: 0.8; stroke-linejoin: miter; stroke-linecap: square"/>
   </g>
   <g id="patch_10">
    <path d="M 47.288281 237.556094 
L 282.575812 237.556094 
" style="fill: none; stroke: #000000; stroke-width: 0.8; stroke-linejoin: miter; stroke-linecap: square"/>
   </g>
   <g id="patch_11">
    <path d="M 47.288281 94.237273 
L 282.575812 94.237273 
" style="fill: none; stroke: #000000; stroke-width: 0.8; stroke-linejoin: miter; stroke-linecap: square"/>
   </g>
   <g id="text_13">
    <!-- Acute low -->
    <g transform="translate(140.517984 76.234539) scale(0.1 -0.1)">
     <defs>
      <path id="DejaVuSans-24" d="M 2188 4044 
L 1331 1722 
L 3047 1722 
L 2188 4044 
z
M 1831 4666 
L 2547 4666 
L 4325 0 
L 3669 0 
L 3244 1197 
L 1141 1197 
L 716 0 
L 50 0 
L 1831 4666 
z
" transform="scale(0.015625)"/>
      <path id="DejaVuSans-5a" d="M 269 3500 
L 844 3500 
L 1563 769 
L 2278 3500 
L 2956 3500 
L 3675 769 
L 4391 3500 
L 4966 3500 
L 4050 0 
L 3372 0 
L 2619 2869 
L 1863 0 
L 1184 0 
L 269 3500 
z
" transform="scale(0.015625)"/>
     </defs>
     <use xlink:href="#DejaVuSans-24"/>
     <use xlink:href="#DejaVuSans-46" transform="translate(66.65625 0)"/>
     <use xlink:href="#DejaVuSans-58" transform="translate(121.640625 0)"/>
     <use xlink:href="#DejaVuSans-57" transform="translate(185.015625 0)"/>
     <use xlink:href="#DejaVuSans-48" transform="translate(224.21875 0)"/>
     <use xlink:href="#DejaVuSans-3" transform="translate(285.75 0)"/>
     <use xlink:href="#DejaVuSans-4f" transform="translate(317.53125 0)"/>
     <use xlink:href="#DejaVuSans-52" transform="translate(345.3125 0)"/>
     <use xlink:href="#DejaVuSans-5a" transform="translate(406.5 0)"/>
    </g>
    <!-- True MTD L4; closest L4 -->
    <g transform="translate(105.675797 88.237273) scale(0.1 -0.1)">
     <defs>
      <path id="DejaVuSans-37" d="M -19 4666 
L 3928 4666 
L 3928 4134 
L 2272 4134 
L 2272 0 
L 1638 0 
L 1638 4134 
L -19 4134 
L -19 4666 
z
" transform="scale(0.015625)"/>
      <path id="DejaVuSans-55" d="M 2631 2963 
Q 2534 3019 2420 3045 
Q 2306 3072 2169 3072 
Q 1681 3072 1420 2755 
Q 1159 2438 1159 1844 
L 1159 0 
L 581 0 
L 581 3500 
L 1159 3500 
L 1159 2956 
Q 1341 3275 1631 3429 
Q 1922 3584 2338 3584 
Q 2397 3584 2469 3576 
Q 2541 3569 2628 3553 
L 2631 2963 
z
" transform="scale(0.015625)"/>
      <path id="DejaVuSans-30" d="M 628 4666 
L 1569 4666 
L 2759 1491 
L 3956 4666 
L 4897 4666 
L 4897 0 
L 4281 0 
L 4281 4097 
L 3078 897 
L 2444 897 
L 1241 4097 
L 1241 0 
L 628 0 
L 628 4666 
z
" transform="scale(0.015625)"/>
      <path id="DejaVuSans-27" d="M 1259 4147 
L 1259 519 
L 2022 519 
Q 2988 519 3436 956 
Q 3884 1394 3884 2338 
Q 3884 3275 3436 3711 
Q 2988 4147 2022 4147 
L 1259 4147 
z
M 628 4666 
L 1925 4666 
Q 3281 4666 3915 4102 
Q 4550 3538 4550 2338 
Q 4550 1131 3912 565 
Q 3275 0 1925 0 
L 628 0 
L 628 4666 
z
" transform="scale(0.015625)"/>
      <path id="DejaVuSans-1e" d="M 750 3309 
L 1409 3309 
L 1409 2516 
L 750 2516 
L 750 3309 
z
M 750 794 
L 1409 794 
L 1409 256 
L 897 -744 
L 494 -744 
L 750 256 
L 750 794 
z
" transform="scale(0.015625)"/>
     </defs>
     <use xlink:href="#DejaVuSans-37"/>
     <use xlink:href="#DejaVuSans-55" transform="translate(46.375 0)"/>
     <use xlink:href="#DejaVuSans-58" transform="translate(87.484375 0)"/>
     <use xlink:href="#DejaVuSans-48" transform="translate(150.859375 0)"/>
     <use xlink:href="#DejaVuSans-3" transform="translate(212.390625 0)"/>
     <use xlink:href="#DejaVuSans-30" transform="translate(244.171875 0)"/>
     <use xlink:href="#DejaVuSans-37" transform="translate(330.453125 0)"/>
     <use xlink:href="#DejaVuSans-27" transform="translate(391.53125 0)"/>
     <use xlink:href="#DejaVuSans-3" transform="translate(468.53125 0)"/>
     <use xlink:href="#DejaVuSans-2f" transform="translate(500.3125 0)"/>
     <use xlink:href="#DejaVuSans-17" transform="translate(556.03125 0)"/>
     <use xlink:href="#DejaVuSans-1e" transform="translate(619.65625 0)"/>
     <use xlink:href="#DejaVuSans-3" transform="translate(653.34375 0)"/>
     <use xlink:href="#DejaVuSans-46" transform="translate(685.125 0)"/>
     <use xlink:href="#DejaVuSans-4f" transform="translate(740.109375 0)"/>
     <use xlink:href="#DejaVuSans-52" transform="translate(767.890625 0)"/>
     <use xlink:href="#DejaVuSans-56" transform="translate(829.078125 0)"/>
     <use xlink:href="#DejaVuSans-48" transform="translate(881.171875 0)"/>
     <use xlink:href="#DejaVuSans-56" transform="translate(942.703125 0)"/>
     <use xlink:href="#DejaVuSans-57" transform="translate(994.796875 0)"/>
     <use xlink:href="#DejaVuSans-3" transform="translate(1034 0)"/>
     <use xlink:href="#DejaVuSans-2f" transform="translate(1065.78125 0)"/>
     <use xlink:href="#DejaVuSans-17" transform="translate(1121.5 0)"/>
    </g>
   </g>
  </g>
  <g id="axes_2">
   <g id="patch_12">
    <path d="M 296.875812 237.556094 
L 532.163344 237.556094 
L 532.163344 94.237273 
L 296.875812 94.237273 
z
" style="fill: #ffffff"/>
   </g>
   <g id="patch_13">
    <path d="M 307.5707 237.556094 
L 343.220326 237.556094 
L 343.220326 237.556094 
L 307.5707 237.556094 
z
" clip-path="url(#p9df068de17)" style="fill: #8ab6d6; stroke: #ffffff; stroke-linejoin: miter"/>
   </g>
   <g id="patch_14">
    <path d="M 352.132733 237.556094 
L 387.782359 237.556094 
L 387.782359 236.8395 
L 352.132733 236.8395 
z
" clip-path="url(#p9df068de17)" style="fill: #8ab6d6; stroke: #ffffff; stroke-linejoin: miter"/>
   </g>
   <g id="patch_15">
    <path d="M 396.694765 237.556094 
L 432.344391 237.556094 
L 432.344391 215.341677 
L 396.694765 215.341677 
z
" clip-path="url(#p9df068de17)" style="fill: #8ab6d6; stroke: #ffffff; stroke-linejoin: miter"/>
   </g>
   <g id="patch_16">
    <path d="M 441.256798 237.556094 
L 476.906424 237.556094 
L 476.906424 174.495813 
L 441.256798 174.495813 
z
" clip-path="url(#p9df068de17)" style="fill: #3ca370; stroke: #ffffff; stroke-linejoin: miter"/>
   </g>
   <g id="patch_17">
    <path d="M 485.81883 237.556094 
L 521.468456 237.556094 
L 521.468456 180.228566 
L 485.81883 180.228566 
z
" clip-path="url(#p9df068de17)" style="fill: #e76f51; stroke: #ffffff; stroke-linejoin: miter"/>
   </g>
   <g id="matplotlib.axis_3">
    <g id="xtick_6">
     <g id="line2d_19">
      <g>
       <use xlink:href="#m6c164852e8" x="325.395513" y="237.556094" style="stroke: #000000; stroke-width: 0.8"/>
      </g>
     </g>
     <g id="text_14">
      <!-- L0 -->
      <g transform="translate(319.428326 253.154727) scale(0.1 -0.1)">
       <use xlink:href="#DejaVuSans-2f"/>
       <use xlink:href="#DejaVuSans-13" transform="translate(55.71875 0)"/>
      </g>
      <!-- 5x4 -->
      <g transform="translate(316.073638 265.15668) scale(0.1 -0.1)">
       <use xlink:href="#DejaVuSans-18"/>
       <use xlink:href="#DejaVuSans-5b" transform="translate(63.625 0)"/>
       <use xlink:href="#DejaVuSans-17" transform="translate(122.8125 0)"/>
      </g>
     </g>
    </g>
    <g id="xtick_7">
     <g id="line2d_20">
      <g>
       <use xlink:href="#m6c164852e8" x="369.957546" y="237.556094" style="stroke: #000000; stroke-width: 0.8"/>
      </g>
     </g>
     <g id="text_15">
      <!-- L1 -->
      <g transform="translate(363.990358 253.154727) scale(0.1 -0.1)">
       <use xlink:href="#DejaVuSans-2f"/>
       <use xlink:href="#DejaVuSans-14" transform="translate(55.71875 0)"/>
      </g>
      <!-- 5x5 -->
      <g transform="translate(360.635671 265.15668) scale(0.1 -0.1)">
       <use xlink:href="#DejaVuSans-18"/>
       <use xlink:href="#DejaVuSans-5b" transform="translate(63.625 0)"/>
       <use xlink:href="#DejaVuSans-18" transform="translate(122.8125 0)"/>
      </g>
     </g>
    </g>
    <g id="xtick_8">
     <g id="line2d_21">
      <g>
       <use xlink:href="#m6c164852e8" x="414.519578" y="237.556094" style="stroke: #000000; stroke-width: 0.8"/>
      </g>
     </g>
     <g id="text_16">
      <!-- L2 -->
      <g transform="translate(408.552391 253.154727) scale(0.1 -0.1)">
       <use xlink:href="#DejaVuSans-2f"/>
       <use xlink:href="#DejaVuSans-15" transform="translate(55.71875 0)"/>
      </g>
      <!-- 5x6 -->
      <g transform="translate(405.197703 265.15668) scale(0.1 -0.1)">
       <use xlink:href="#DejaVuSans-18"/>
       <use xlink:href="#DejaVuSans-5b" transform="translate(63.625 0)"/>
       <use xlink:href="#DejaVuSans-19" transform="translate(122.8125 0)"/>
      </g>
     </g>
    </g>
    <g id="xtick_9">
     <g id="line2d_22">
      <g>
       <use xlink:href="#m6c164852e8" x="459.081611" y="237.556094" style="stroke: #000000; stroke-width: 0.8"/>
      </g>
     </g>
     <g id="text_17">
      <!-- L3 -->
      <g transform="translate(453.114423 253.154727) scale(0.1 -0.1)">
       <use xlink:href="#DejaVuSans-2f"/>
       <use xlink:href="#DejaVuSans-16" transform="translate(55.71875 0)"/>
      </g>
      <!-- 5x7 -->
      <g transform="translate(449.759736 265.15668) scale(0.1 -0.1)">
       <use xlink:href="#DejaVuSans-18"/>
       <use xlink:href="#DejaVuSans-5b" transform="translate(63.625 0)"/>
       <use xlink:href="#DejaVuSans-1a" transform="translate(122.8125 0)"/>
      </g>
     </g>
    </g>
    <g id="xtick_10">
     <g id="line2d_23">
      <g>
       <use xlink:href="#m6c164852e8" x="503.643643" y="237.556094" style="stroke: #000000; stroke-width: 0.8"/>
      </g>
     </g>
     <g id="text_18">
      <!-- L4 -->
      <g transform="translate(497.676455 253.154727) scale(0.1 -0.1)">
       <use xlink:href="#DejaVuSans-2f"/>
       <use xlink:href="#DejaVuSans-17" transform="translate(55.71875 0)"/>
      </g>
      <!-- 5x8 -->
      <g transform="translate(494.321768 265.15668) scale(0.1 -0.1)">
       <use xlink:href="#DejaVuSans-18"/>
       <use xlink:href="#DejaVuSans-5b" transform="translate(63.625 0)"/>
       <use xlink:href="#DejaVuSans-1b" transform="translate(122.8125 0)"/>
      </g>
     </g>
    </g>
   </g>
   <g id="matplotlib.axis_4">
    <g id="ytick_7">
     <g id="line2d_24">
      <path d="M 296.875812 237.556094 
L 532.163344 237.556094 
" clip-path="url(#p9df068de17)" style="fill: none; stroke: #b0b0b0; stroke-opacity: 0.25; stroke-width: 0.8; stroke-linecap: square"/>
     </g>
     <g id="line2d_25">
      <g>
       <use xlink:href="#m8f926a991b" x="296.875812" y="237.556094" style="stroke: #000000; stroke-width: 0.8"/>
      </g>
     </g>
    </g>
    <g id="ytick_8">
     <g id="line2d_26">
      <path d="M 296.875812 208.89233 
L 532.163344 208.89233 
" clip-path="url(#p9df068de17)" style="fill: none; stroke: #b0b0b0; stroke-opacity: 0.25; stroke-width: 0.8; stroke-linecap: square"/>
     </g>
     <g id="line2d_27">
      <g>
       <use xlink:href="#m8f926a991b" x="296.875812" y="208.89233" style="stroke: #000000; stroke-width: 0.8"/>
      </g>
     </g>
    </g>
    <g id="ytick_9">
     <g id="line2d_28">
      <path d="M 296.875812 180.228566 
L 532.163344 180.228566 
" clip-path="url(#p9df068de17)" style="fill: none; stroke: #b0b0b0; stroke-opacity: 0.25; stroke-width: 0.8; stroke-linecap: square"/>
     </g>
     <g id="line2d_29">
      <g>
       <use xlink:href="#m8f926a991b" x="296.875812" y="180.228566" style="stroke: #000000; stroke-width: 0.8"/>
      </g>
     </g>
    </g>
    <g id="ytick_10">
     <g id="line2d_30">
      <path d="M 296.875812 151.564802 
L 532.163344 151.564802 
" clip-path="url(#p9df068de17)" style="fill: none; stroke: #b0b0b0; stroke-opacity: 0.25; stroke-width: 0.8; stroke-linecap: square"/>
     </g>
     <g id="line2d_31">
      <g>
       <use xlink:href="#m8f926a991b" x="296.875812" y="151.564802" style="stroke: #000000; stroke-width: 0.8"/>
      </g>
     </g>
    </g>
    <g id="ytick_11">
     <g id="line2d_32">
      <path d="M 296.875812 122.901038 
L 532.163344 122.901038 
" clip-path="url(#p9df068de17)" style="fill: none; stroke: #b0b0b0; stroke-opacity: 0.25; stroke-width: 0.8; stroke-linecap: square"/>
     </g>
     <g id="line2d_33">
      <g>
       <use xlink:href="#m8f926a991b" x="296.875812" y="122.901038" style="stroke: #000000; stroke-width: 0.8"/>
      </g>
     </g>
    </g>
    <g id="ytick_12">
     <g id="line2d_34">
      <path d="M 296.875812 94.237273 
L 532.163344 94.237273 
" clip-path="url(#p9df068de17)" style="fill: none; stroke: #b0b0b0; stroke-opacity: 0.25; stroke-width: 0.8; stroke-linecap: square"/>
     </g>
     <g id="line2d_35">
      <g>
       <use xlink:href="#m8f926a991b" x="296.875812" y="94.237273" style="stroke: #000000; stroke-width: 0.8"/>
      </g>
     </g>
    </g>
   </g>
   <g id="line2d_36">
    <path d="M 459.081611 237.556094 
L 459.081611 94.237273 
" clip-path="url(#p9df068de17)" style="fill: none; stroke-dasharray: 4.44,1.92; stroke-dashoffset: 0; stroke: #000000; stroke-width: 1.2"/>
   </g>
   <g id="patch_18">
    <path d="M 296.875812 237.556094 
L 296.875812 94.237273 
" style="fill: none; stroke: #000000; stroke-width: 0.8; stroke-linejoin: miter; stroke-linecap: square"/>
   </g>
   <g id="patch_19">
    <path d="M 532.163344 237.556094 
L 532.163344 94.237273 
" style="fill: none; stroke: #000000; stroke-width: 0.8; stroke-linejoin: miter; stroke-linecap: square"/>
   </g>
   <g id="patch_20">
    <path d="M 296.875812 237.556094 
L 532.163344 237.556094 
" style="fill: none; stroke: #000000; stroke-width: 0.8; stroke-linejoin: miter; stroke-linecap: square"/>
   </g>
   <g id="patch_21">
    <path d="M 296.875812 94.237273 
L 532.163344 94.237273 
" style="fill: none; stroke: #000000; stroke-width: 0.8; stroke-linejoin: miter; stroke-linecap: square"/>
   </g>
   <g id="text_19">
    <!-- Acute middle -->
    <g transform="translate(381.569578 76.234539) scale(0.1 -0.1)">
     <use xlink:href="#DejaVuSans-24"/>
     <use xlink:href="#DejaVuSans-46" transform="translate(66.65625 0)"/>
     <use xlink:href="#DejaVuSans-58" transform="translate(121.640625 0)"/>
     <use xlink:href="#DejaVuSans-57" transform="translate(185.015625 0)"/>
     <use xlink:href="#DejaVuSans-48" transform="translate(224.21875 0)"/>
     <use xlink:href="#DejaVuSans-3" transform="translate(285.75 0)"/>
     <use xlink:href="#DejaVuSans-50" transform="translate(317.53125 0)"/>
     <use xlink:href="#DejaVuSans-4c" transform="translate(414.9375 0)"/>
     <use xlink:href="#DejaVuSans-47" transform="translate(442.71875 0)"/>
     <use xlink:href="#DejaVuSans-47" transform="translate(506.203125 0)"/>
     <use xlink:href="#DejaVuSans-4f" transform="translate(569.6875 0)"/>
     <use xlink:href="#DejaVuSans-48" transform="translate(597.46875 0)"/>
    </g>
    <!-- True MTD L3; closest L3 -->
    <g transform="translate(355.263328 88.237273) scale(0.1 -0.1)">
     <use xlink:href="#DejaVuSans-37"/>
     <use xlink:href="#DejaVuSans-55" transform="translate(46.375 0)"/>
     <use xlink:href="#DejaVuSans-58" transform="translate(87.484375 0)"/>
     <use xlink:href="#DejaVuSans-48" transform="translate(150.859375 0)"/>
     <use xlink:href="#DejaVuSans-3" transform="translate(212.390625 0)"/>
     <use xlink:href="#DejaVuSans-30" transform="translate(244.171875 0)"/>
     <use xlink:href="#DejaVuSans-37" transform="translate(330.453125 0)"/>
     <use xlink:href="#DejaVuSans-27" transform="translate(391.53125 0)"/>
     <use xlink:href="#DejaVuSans-3" transform="translate(468.53125 0)"/>
     <use xlink:href="#DejaVuSans-2f" transform="translate(500.3125 0)"/>
     <use xlink:href="#DejaVuSans-16" transform="translate(556.03125 0)"/>
     <use xlink:href="#DejaVuSans-1e" transform="translate(619.65625 0)"/>
     <use xlink:href="#DejaVuSans-3" transform="translate(653.34375 0)"/>
     <use xlink:href="#DejaVuSans-46" transform="translate(685.125 0)"/>
     <use xlink:href="#DejaVuSans-4f" transform="translate(740.109375 0)"/>
     <use xlink:href="#DejaVuSans-52" transform="translate(767.890625 0)"/>
     <use xlink:href="#DejaVuSans-56" transform="translate(829.078125 0)"/>
     <use xlink:href="#DejaVuSans-48" transform="translate(881.171875 0)"/>
     <use xlink:href="#DejaVuSans-56" transform="translate(942.703125 0)"/>
     <use xlink:href="#DejaVuSans-57" transform="translate(994.796875 0)"/>
     <use xlink:href="#DejaVuSans-3" transform="translate(1034 0)"/>
     <use xlink:href="#DejaVuSans-2f" transform="translate(1065.78125 0)"/>
     <use xlink:href="#DejaVuSans-16" transform="translate(1121.5 0)"/>
    </g>
   </g>
  </g>
  <g id="axes_3">
   <g id="patch_22">
    <path d="M 546.463344 237.556094 
L 781.750875 237.556094 
L 781.750875 94.237273 
L 546.463344 94.237273 
z
" style="fill: #ffffff"/>
   </g>
   <g id="patch_23">
    <path d="M 557.158232 237.556094 
L 592.807857 237.556094 
L 592.807857 237.556094 
L 557.158232 237.556094 
z
" clip-path="url(#p13acbb6e2c)" style="fill: #8ab6d6; stroke: #ffffff; stroke-linejoin: miter"/>
   </g>
   <g id="patch_24">
    <path d="M 601.720264 237.556094 
L 637.36989 237.556094 
L 637.36989 234.689717 
L 601.720264 234.689717 
z
" clip-path="url(#p13acbb6e2c)" style="fill: #8ab6d6; stroke: #ffffff; stroke-linejoin: miter"/>
   </g>
   <g id="patch_25">
    <path d="M 646.282296 237.556094 
L 681.931922 237.556094 
L 681.931922 191.694071 
L 646.282296 191.694071 
z
" clip-path="url(#p13acbb6e2c)" style="fill: #3ca370; stroke: #ffffff; stroke-linejoin: miter"/>
   </g>
   <g id="patch_26">
    <path d="M 690.844329 237.556094 
L 726.493955 237.556094 
L 726.493955 169.479654 
L 690.844329 169.479654 
z
" clip-path="url(#p13acbb6e2c)" style="fill: #e76f51; stroke: #ffffff; stroke-linejoin: miter"/>
   </g>
   <g id="patch_27">
    <path d="M 735.406361 237.556094 
L 771.055987 237.556094 
L 771.055987 211.042112 
L 735.406361 211.042112 
z
" clip-path="url(#p13acbb6e2c)" style="fill: #e76f51; stroke: #ffffff; stroke-linejoin: miter"/>
   </g>
   <g id="matplotlib.axis_5">
    <g id="xtick_11">
     <g id="line2d_37">
      <g>
       <use xlink:href="#m6c164852e8" x="574.983045" y="237.556094" style="stroke: #000000; stroke-width: 0.8"/>
      </g>
     </g>
     <g id="text_20">
      <!-- L0 -->
      <g transform="translate(569.015857 253.154727) scale(0.1 -0.1)">
       <use xlink:href="#DejaVuSans-2f"/>
       <use xlink:href="#DejaVuSans-13" transform="translate(55.71875 0)"/>
      </g>
      <!-- 5x4 -->
      <g transform="translate(565.66117 265.15668) scale(0.1 -0.1)">
       <use xlink:href="#DejaVuSans-18"/>
       <use xlink:href="#DejaVuSans-5b" transform="translate(63.625 0)"/>
       <use xlink:href="#DejaVuSans-17" transform="translate(122.8125 0)"/>
      </g>
     </g>
    </g>
    <g id="xtick_12">
     <g id="line2d_38">
      <g>
       <use xlink:href="#m6c164852e8" x="619.545077" y="237.556094" style="stroke: #000000; stroke-width: 0.8"/>
      </g>
     </g>
     <g id="text_21">
      <!-- L1 -->
      <g transform="translate(613.577889 253.154727) scale(0.1 -0.1)">
       <use xlink:href="#DejaVuSans-2f"/>
       <use xlink:href="#DejaVuSans-14" transform="translate(55.71875 0)"/>
      </g>
      <!-- 5x5 -->
      <g transform="translate(610.223202 265.15668) scale(0.1 -0.1)">
       <use xlink:href="#DejaVuSans-18"/>
       <use xlink:href="#DejaVuSans-5b" transform="translate(63.625 0)"/>
       <use xlink:href="#DejaVuSans-18" transform="translate(122.8125 0)"/>
      </g>
     </g>
    </g>
    <g id="xtick_13">
     <g id="line2d_39">
      <g>
       <use xlink:href="#m6c164852e8" x="664.107109" y="237.556094" style="stroke: #000000; stroke-width: 0.8"/>
      </g>
     </g>
     <g id="text_22">
      <!-- L2 -->
      <g transform="translate(658.139922 253.154727) scale(0.1 -0.1)">
       <use xlink:href="#DejaVuSans-2f"/>
       <use xlink:href="#DejaVuSans-15" transform="translate(55.71875 0)"/>
      </g>
      <!-- 5x6 -->
      <g transform="translate(654.785234 265.15668) scale(0.1 -0.1)">
       <use xlink:href="#DejaVuSans-18"/>
       <use xlink:href="#DejaVuSans-5b" transform="translate(63.625 0)"/>
       <use xlink:href="#DejaVuSans-19" transform="translate(122.8125 0)"/>
      </g>
     </g>
    </g>
    <g id="xtick_14">
     <g id="line2d_40">
      <g>
       <use xlink:href="#m6c164852e8" x="708.669142" y="237.556094" style="stroke: #000000; stroke-width: 0.8"/>
      </g>
     </g>
     <g id="text_23">
      <!-- L3 -->
      <g transform="translate(702.701954 253.154727) scale(0.1 -0.1)">
       <use xlink:href="#DejaVuSans-2f"/>
       <use xlink:href="#DejaVuSans-16" transform="translate(55.71875 0)"/>
      </g>
      <!-- 5x7 -->
      <g transform="translate(699.347267 265.15668) scale(0.1 -0.1)">
       <use xlink:href="#DejaVuSans-18"/>
       <use xlink:href="#DejaVuSans-5b" transform="translate(63.625 0)"/>
       <use xlink:href="#DejaVuSans-1a" transform="translate(122.8125 0)"/>
      </g>
     </g>
    </g>
    <g id="xtick_15">
     <g id="line2d_41">
      <g>
       <use xlink:href="#m6c164852e8" x="753.231174" y="237.556094" style="stroke: #000000; stroke-width: 0.8"/>
      </g>
     </g>
     <g id="text_24">
      <!-- L4 -->
      <g transform="translate(747.263987 253.154727) scale(0.1 -0.1)">
       <use xlink:href="#DejaVuSans-2f"/>
       <use xlink:href="#DejaVuSans-17" transform="translate(55.71875 0)"/>
      </g>
      <!-- 5x8 -->
      <g transform="translate(743.909299 265.15668) scale(0.1 -0.1)">
       <use xlink:href="#DejaVuSans-18"/>
       <use xlink:href="#DejaVuSans-5b" transform="translate(63.625 0)"/>
       <use xlink:href="#DejaVuSans-1b" transform="translate(122.8125 0)"/>
      </g>
     </g>
    </g>
   </g>
   <g id="matplotlib.axis_6">
    <g id="ytick_13">
     <g id="line2d_42">
      <path d="M 546.463344 237.556094 
L 781.750875 237.556094 
" clip-path="url(#p13acbb6e2c)" style="fill: none; stroke: #b0b0b0; stroke-opacity: 0.25; stroke-width: 0.8; stroke-linecap: square"/>
     </g>
     <g id="line2d_43">
      <g>
       <use xlink:href="#m8f926a991b" x="546.463344" y="237.556094" style="stroke: #000000; stroke-width: 0.8"/>
      </g>
     </g>
    </g>
    <g id="ytick_14">
     <g id="line2d_44">
      <path d="M 546.463344 208.89233 
L 781.750875 208.89233 
" clip-path="url(#p13acbb6e2c)" style="fill: none; stroke: #b0b0b0; stroke-opacity: 0.25; stroke-width: 0.8; stroke-linecap: square"/>
     </g>
     <g id="line2d_45">
      <g>
       <use xlink:href="#m8f926a991b" x="546.463344" y="208.89233" style="stroke: #000000; stroke-width: 0.8"/>
      </g>
     </g>
    </g>
    <g id="ytick_15">
     <g id="line2d_46">
      <path d="M 546.463344 180.228566 
L 781.750875 180.228566 
" clip-path="url(#p13acbb6e2c)" style="fill: none; stroke: #b0b0b0; stroke-opacity: 0.25; stroke-width: 0.8; stroke-linecap: square"/>
     </g>
     <g id="line2d_47">
      <g>
       <use xlink:href="#m8f926a991b" x="546.463344" y="180.228566" style="stroke: #000000; stroke-width: 0.8"/>
      </g>
     </g>
    </g>
    <g id="ytick_16">
     <g id="line2d_48">
      <path d="M 546.463344 151.564802 
L 781.750875 151.564802 
" clip-path="url(#p13acbb6e2c)" style="fill: none; stroke: #b0b0b0; stroke-opacity: 0.25; stroke-width: 0.8; stroke-linecap: square"/>
     </g>
     <g id="line2d_49">
      <g>
       <use xlink:href="#m8f926a991b" x="546.463344" y="151.564802" style="stroke: #000000; stroke-width: 0.8"/>
      </g>
     </g>
    </g>
    <g id="ytick_17">
     <g id="line2d_50">
      <path d="M 546.463344 122.901038 
L 781.750875 122.901038 
" clip-path="url(#p13acbb6e2c)" style="fill: none; stroke: #b0b0b0; stroke-opacity: 0.25; stroke-width: 0.8; stroke-linecap: square"/>
     </g>
     <g id="line2d_51">
      <g>
       <use xlink:href="#m8f926a991b" x="546.463344" y="122.901038" style="stroke: #000000; stroke-width: 0.8"/>
      </g>
     </g>
    </g>
    <g id="ytick_18">
     <g id="line2d_52">
      <path d="M 546.463344 94.237273 
L 781.750875 94.237273 
" clip-path="url(#p13acbb6e2c)" style="fill: none; stroke: #b0b0b0; stroke-opacity: 0.25; stroke-width: 0.8; stroke-linecap: square"/>
     </g>
     <g id="line2d_53">
      <g>
       <use xlink:href="#m8f926a991b" x="546.463344" y="94.237273" style="stroke: #000000; stroke-width: 0.8"/>
      </g>
     </g>
    </g>
   </g>
   <g id="line2d_54">
    <path d="M 664.107109 237.556094 
L 664.107109 94.237273 
" clip-path="url(#p13acbb6e2c)" style="fill: none; stroke-dasharray: 4.44,1.92; stroke-dashoffset: 0; stroke: #000000; stroke-width: 1.2"/>
   </g>
   <g id="line2d_55">
    <path d="M 708.669142 237.556094 
L 708.669142 94.237273 
" clip-path="url(#p13acbb6e2c)" style="fill: none; stroke-dasharray: 1.2,1.98; stroke-dashoffset: 0; stroke: #7c3aed; stroke-width: 1.2"/>
   </g>
   <g id="patch_28">
    <path d="M 546.463344 237.556094 
L 546.463344 94.237273 
" style="fill: none; stroke: #000000; stroke-width: 0.8; stroke-linejoin: miter; stroke-linecap: square"/>
   </g>
   <g id="patch_29">
    <path d="M 781.750875 237.556094 
L 781.750875 94.237273 
" style="fill: none; stroke: #000000; stroke-width: 0.8; stroke-linejoin: miter; stroke-linecap: square"/>
   </g>
   <g id="patch_30">
    <path d="M 546.463344 237.556094 
L 781.750875 237.556094 
" style="fill: none; stroke: #000000; stroke-width: 0.8; stroke-linejoin: miter; stroke-linecap: square"/>
   </g>
   <g id="patch_31">
    <path d="M 546.463344 94.237273 
L 781.750875 94.237273 
" style="fill: none; stroke: #000000; stroke-width: 0.8; stroke-linejoin: miter; stroke-linecap: square"/>
   </g>
   <g id="text_25">
    <!-- Acute high -->
    <g transform="translate(637.329766 76.234539) scale(0.1 -0.1)">
     <defs>
      <path id="DejaVuSans-4b" d="M 3513 2113 
L 3513 0 
L 2938 0 
L 2938 2094 
Q 2938 2591 2744 2837 
Q 2550 3084 2163 3084 
Q 1697 3084 1428 2787 
Q 1159 2491 1159 1978 
L 1159 0 
L 581 0 
L 581 4863 
L 1159 4863 
L 1159 2956 
Q 1366 3272 1645 3428 
Q 1925 3584 2291 3584 
Q 2894 3584 3203 3211 
Q 3513 2838 3513 2113 
z
" transform="scale(0.015625)"/>
      <path id="DejaVuSans-4a" d="M 2906 1791 
Q 2906 2416 2648 2759 
Q 2391 3103 1925 3103 
Q 1463 3103 1205 2759 
Q 947 2416 947 1791 
Q 947 1169 1205 825 
Q 1463 481 1925 481 
Q 2391 481 2648 825 
Q 2906 1169 2906 1791 
z
M 3481 434 
Q 3481 -459 3084 -895 
Q 2688 -1331 1869 -1331 
Q 1566 -1331 1297 -1286 
Q 1028 -1241 775 -1147 
L 775 -588 
Q 1028 -725 1275 -790 
Q 1522 -856 1778 -856 
Q 2344 -856 2625 -561 
Q 2906 -266 2906 331 
L 2906 616 
Q 2728 306 2450 153 
Q 2172 0 1784 0 
Q 1141 0 747 490 
Q 353 981 353 1791 
Q 353 2603 747 3093 
Q 1141 3584 1784 3584 
Q 2172 3584 2450 3431 
Q 2728 3278 2906 2969 
L 2906 3500 
L 3481 3500 
L 3481 434 
z
" transform="scale(0.015625)"/>
     </defs>
     <use xlink:href="#DejaVuSans-24"/>
     <use xlink:href="#DejaVuSans-46" transform="translate(66.65625 0)"/>
     <use xlink:href="#DejaVuSans-58" transform="translate(121.640625 0)"/>
     <use xlink:href="#DejaVuSans-57" transform="translate(185.015625 0)"/>
     <use xlink:href="#DejaVuSans-48" transform="translate(224.21875 0)"/>
     <use xlink:href="#DejaVuSans-3" transform="translate(285.75 0)"/>
     <use xlink:href="#DejaVuSans-4b" transform="translate(317.53125 0)"/>
     <use xlink:href="#DejaVuSans-4c" transform="translate(380.90625 0)"/>
     <use xlink:href="#DejaVuSans-4a" transform="translate(408.6875 0)"/>
     <use xlink:href="#DejaVuSans-4b" transform="translate(472.171875 0)"/>
    </g>
    <!-- True MTD L2; closest L3 -->
    <g transform="translate(604.850859 88.237273) scale(0.1 -0.1)">
     <use xlink:href="#DejaVuSans-37"/>
     <use xlink:href="#DejaVuSans-55" transform="translate(46.375 0)"/>
     <use xlink:href="#DejaVuSans-58" transform="translate(87.484375 0)"/>
     <use xlink:href="#DejaVuSans-48" transform="translate(150.859375 0)"/>
     <use xlink:href="#DejaVuSans-3" transform="translate(212.390625 0)"/>
     <use xlink:href="#DejaVuSans-30" transform="translate(244.171875 0)"/>
     <use xlink:href="#DejaVuSans-37" transform="translate(330.453125 0)"/>
     <use xlink:href="#DejaVuSans-27" transform="translate(391.53125 0)"/>
     <use xlink:href="#DejaVuSans-3" transform="translate(468.53125 0)"/>
     <use xlink:href="#DejaVuSans-2f" transform="translate(500.3125 0)"/>
     <use xlink:href="#DejaVuSans-15" transform="translate(556.03125 0)"/>
     <use xlink:href="#DejaVuSans-1e" transform="translate(619.65625 0)"/>
     <use xlink:href="#DejaVuSans-3" transform="translate(653.34375 0)"/>
     <use xlink:href="#DejaVuSans-46" transform="translate(685.125 0)"/>
     <use xlink:href="#DejaVuSans-4f" transform="translate(740.109375 0)"/>
     <use xlink:href="#DejaVuSans-52" transform="translate(767.890625 0)"/>
     <use xlink:href="#DejaVuSans-56" transform="translate(829.078125 0)"/>
     <use xlink:href="#DejaVuSans-48" transform="translate(881.171875 0)"/>
     <use xlink:href="#DejaVuSans-56" transform="translate(942.703125 0)"/>
     <use xlink:href="#DejaVuSans-57" transform="translate(994.796875 0)"/>
     <use xlink:href="#DejaVuSans-3" transform="translate(1034 0)"/>
     <use xlink:href="#DejaVuSans-2f" transform="translate(1065.78125 0)"/>
     <use xlink:href="#DejaVuSans-16" transform="translate(1121.5 0)"/>
    </g>
   </g>
  </g>
  <g id="axes_4">
   <g id="patch_32">
    <path d="M 796.050875 237.556094 
L 1031.338406 237.556094 
L 1031.338406 94.237273 
L 796.050875 94.237273 
z
" style="fill: #ffffff"/>
   </g>
   <g id="patch_33">
    <path d="M 806.745763 237.556094 
L 842.395389 237.556094 
L 842.395389 237.556094 
L 806.745763 237.556094 
z
" clip-path="url(#p1e076f6f91)" style="fill: #8ab6d6; stroke: #ffffff; stroke-linejoin: miter"/>
   </g>
   <g id="patch_34">
    <path d="M 851.307795 237.556094 
L 886.957421 237.556094 
L 886.957421 237.556094 
L 851.307795 237.556094 
z
" clip-path="url(#p1e076f6f91)" style="fill: #8ab6d6; stroke: #ffffff; stroke-linejoin: miter"/>
   </g>
   <g id="patch_35">
    <path d="M 895.869828 237.556094 
L 931.519454 237.556094 
L 931.519454 199.576606 
L 895.869828 199.576606 
z
" clip-path="url(#p1e076f6f91)" style="fill: #3ca370; stroke: #ffffff; stroke-linejoin: miter"/>
   </g>
   <g id="patch_36">
    <path d="M 940.43186 237.556094 
L 976.081486 237.556094 
L 976.081486 153.714584 
L 940.43186 153.714584 
z
" clip-path="url(#p1e076f6f91)" style="fill: #e76f51; stroke: #ffffff; stroke-linejoin: miter"/>
   </g>
   <g id="patch_37">
    <path d="M 984.993893 237.556094 
L 1020.643518 237.556094 
L 1020.643518 216.058271 
L 984.993893 216.058271 
z
" clip-path="url(#p1e076f6f91)" style="fill: #e76f51; stroke: #ffffff; stroke-linejoin: miter"/>
   </g>
   <g id="matplotlib.axis_7">
    <g id="xtick_16">
     <g id="line2d_56">
      <g>
       <use xlink:href="#m6c164852e8" x="824.570576" y="237.556094" style="stroke: #000000; stroke-width: 0.8"/>
      </g>
     </g>
     <g id="text_26">
      <!-- L0 -->
      <g transform="translate(818.603388 253.154727) scale(0.1 -0.1)">
       <use xlink:href="#DejaVuSans-2f"/>
       <use xlink:href="#DejaVuSans-13" transform="translate(55.71875 0)"/>
      </g>
      <!-- 5x4 -->
      <g transform="translate(815.248701 265.15668) scale(0.1 -0.1)">
       <use xlink:href="#DejaVuSans-18"/>
       <use xlink:href="#DejaVuSans-5b" transform="translate(63.625 0)"/>
       <use xlink:href="#DejaVuSans-17" transform="translate(122.8125 0)"/>
      </g>
     </g>
    </g>
    <g id="xtick_17">
     <g id="line2d_57">
      <g>
       <use xlink:href="#m6c164852e8" x="869.132608" y="237.556094" style="stroke: #000000; stroke-width: 0.8"/>
      </g>
     </g>
     <g id="text_27">
      <!-- L1 -->
      <g transform="translate(863.165421 253.154727) scale(0.1 -0.1)">
       <use xlink:href="#DejaVuSans-2f"/>
       <use xlink:href="#DejaVuSans-14" transform="translate(55.71875 0)"/>
      </g>
      <!-- 5x5 -->
      <g transform="translate(859.810733 265.15668) scale(0.1 -0.1)">
       <use xlink:href="#DejaVuSans-18"/>
       <use xlink:href="#DejaVuSans-5b" transform="translate(63.625 0)"/>
       <use xlink:href="#DejaVuSans-18" transform="translate(122.8125 0)"/>
      </g>
     </g>
    </g>
    <g id="xtick_18">
     <g id="line2d_58">
      <g>
       <use xlink:href="#m6c164852e8" x="913.694641" y="237.556094" style="stroke: #000000; stroke-width: 0.8"/>
      </g>
     </g>
     <g id="text_28">
      <!-- L2 -->
      <g transform="translate(907.727453 253.154727) scale(0.1 -0.1)">
       <use xlink:href="#DejaVuSans-2f"/>
       <use xlink:href="#DejaVuSans-15" transform="translate(55.71875 0)"/>
      </g>
      <!-- 5x6 -->
      <g transform="translate(904.372766 265.15668) scale(0.1 -0.1)">
       <use xlink:href="#DejaVuSans-18"/>
       <use xlink:href="#DejaVuSans-5b" transform="translate(63.625 0)"/>
       <use xlink:href="#DejaVuSans-19" transform="translate(122.8125 0)"/>
      </g>
     </g>
    </g>
    <g id="xtick_19">
     <g id="line2d_59">
      <g>
       <use xlink:href="#m6c164852e8" x="958.256673" y="237.556094" style="stroke: #000000; stroke-width: 0.8"/>
      </g>
     </g>
     <g id="text_29">
      <!-- L3 -->
      <g transform="translate(952.289486 253.154727) scale(0.1 -0.1)">
       <use xlink:href="#DejaVuSans-2f"/>
       <use xlink:href="#DejaVuSans-16" transform="translate(55.71875 0)"/>
      </g>
      <!-- 5x7 -->
      <g transform="translate(948.934798 265.15668) scale(0.1 -0.1)">
       <use xlink:href="#DejaVuSans-18"/>
       <use xlink:href="#DejaVuSans-5b" transform="translate(63.625 0)"/>
       <use xlink:href="#DejaVuSans-1a" transform="translate(122.8125 0)"/>
      </g>
     </g>
    </g>
    <g id="xtick_20">
     <g id="line2d_60">
      <g>
       <use xlink:href="#m6c164852e8" x="1002.818705" y="237.556094" style="stroke: #000000; stroke-width: 0.8"/>
      </g>
     </g>
     <g id="text_30">
      <!-- L4 -->
      <g transform="translate(996.851518 253.154727) scale(0.1 -0.1)">
       <use xlink:href="#DejaVuSans-2f"/>
       <use xlink:href="#DejaVuSans-17" transform="translate(55.71875 0)"/>
      </g>
      <!-- 5x8 -->
      <g transform="translate(993.49683 265.15668) scale(0.1 -0.1)">
       <use xlink:href="#DejaVuSans-18"/>
       <use xlink:href="#DejaVuSans-5b" transform="translate(63.625 0)"/>
       <use xlink:href="#DejaVuSans-1b" transform="translate(122.8125 0)"/>
      </g>
     </g>
    </g>
   </g>
   <g id="matplotlib.axis_8">
    <g id="ytick_19">
     <g id="line2d_61">
      <path d="M 796.050875 237.556094 
L 1031.338406 237.556094 
" clip-path="url(#p1e076f6f91)" style="fill: none; stroke: #b0b0b0; stroke-opacity: 0.25; stroke-width: 0.8; stroke-linecap: square"/>
     </g>
     <g id="line2d_62">
      <g>
       <use xlink:href="#m8f926a991b" x="796.050875" y="237.556094" style="stroke: #000000; stroke-width: 0.8"/>
      </g>
     </g>
    </g>
    <g id="ytick_20">
     <g id="line2d_63">
      <path d="M 796.050875 208.89233 
L 1031.338406 208.89233 
" clip-path="url(#p1e076f6f91)" style="fill: none; stroke: #b0b0b0; stroke-opacity: 0.25; stroke-width: 0.8; stroke-linecap: square"/>
     </g>
     <g id="line2d_64">
      <g>
       <use xlink:href="#m8f926a991b" x="796.050875" y="208.89233" style="stroke: #000000; stroke-width: 0.8"/>
      </g>
     </g>
    </g>
    <g id="ytick_21">
     <g id="line2d_65">
      <path d="M 796.050875 180.228566 
L 1031.338406 180.228566 
" clip-path="url(#p1e076f6f91)" style="fill: none; stroke: #b0b0b0; stroke-opacity: 0.25; stroke-width: 0.8; stroke-linecap: square"/>
     </g>
     <g id="line2d_66">
      <g>
       <use xlink:href="#m8f926a991b" x="796.050875" y="180.228566" style="stroke: #000000; stroke-width: 0.8"/>
      </g>
     </g>
    </g>
    <g id="ytick_22">
     <g id="line2d_67">
      <path d="M 796.050875 151.564802 
L 1031.338406 151.564802 
" clip-path="url(#p1e076f6f91)" style="fill: none; stroke: #b0b0b0; stroke-opacity: 0.25; stroke-width: 0.8; stroke-linecap: square"/>
     </g>
     <g id="line2d_68">
      <g>
       <use xlink:href="#m8f926a991b" x="796.050875" y="151.564802" style="stroke: #000000; stroke-width: 0.8"/>
      </g>
     </g>
    </g>
    <g id="ytick_23">
     <g id="line2d_69">
      <path d="M 796.050875 122.901038 
L 1031.338406 122.901038 
" clip-path="url(#p1e076f6f91)" style="fill: none; stroke: #b0b0b0; stroke-opacity: 0.25; stroke-width: 0.8; stroke-linecap: square"/>
     </g>
     <g id="line2d_70">
      <g>
       <use xlink:href="#m8f926a991b" x="796.050875" y="122.901038" style="stroke: #000000; stroke-width: 0.8"/>
      </g>
     </g>
    </g>
    <g id="ytick_24">
     <g id="line2d_71">
      <path d="M 796.050875 94.237273 
L 1031.338406 94.237273 
" clip-path="url(#p1e076f6f91)" style="fill: none; stroke: #b0b0b0; stroke-opacity: 0.25; stroke-width: 0.8; stroke-linecap: square"/>
     </g>
     <g id="line2d_72">
      <g>
       <use xlink:href="#m8f926a991b" x="796.050875" y="94.237273" style="stroke: #000000; stroke-width: 0.8"/>
      </g>
     </g>
    </g>
   </g>
   <g id="line2d_73">
    <path d="M 913.694641 237.556094 
L 913.694641 94.237273 
" clip-path="url(#p1e076f6f91)" style="fill: none; stroke-dasharray: 4.44,1.92; stroke-dashoffset: 0; stroke: #000000; stroke-width: 1.2"/>
   </g>
   <g id="line2d_74">
    <path d="M 958.256673 237.556094 
L 958.256673 94.237273 
" clip-path="url(#p1e076f6f91)" style="fill: none; stroke-dasharray: 1.2,1.98; stroke-dashoffset: 0; stroke: #7c3aed; stroke-width: 1.2"/>
   </g>
   <g id="patch_38">
    <path d="M 796.050875 237.556094 
L 796.050875 94.237273 
" style="fill: none; stroke: #000000; stroke-width: 0.8; stroke-linejoin: miter; stroke-linecap: square"/>
   </g>
   <g id="patch_39">
    <path d="M 1031.338406 237.556094 
L 1031.338406 94.237273 
" style="fill: none; stroke: #000000; stroke-width: 0.8; stroke-linejoin: miter; stroke-linecap: square"/>
   </g>
   <g id="patch_40">
    <path d="M 796.050875 237.556094 
L 1031.338406 237.556094 
" style="fill: none; stroke: #000000; stroke-width: 0.8; stroke-linejoin: miter; stroke-linecap: square"/>
   </g>
   <g id="patch_41">
    <path d="M 796.050875 94.237273 
L 1031.338406 94.237273 
" style="fill: none; stroke: #000000; stroke-width: 0.8; stroke-linejoin: miter; stroke-linecap: square"/>
   </g>
   <g id="text_31">
    <!-- Acute steep -->
    <g transform="translate(883.925891 76.234539) scale(0.1 -0.1)">
     <defs>
      <path id="DejaVuSans-53" d="M 1159 525 
L 1159 -1331 
L 581 -1331 
L 581 3500 
L 1159 3500 
L 1159 2969 
Q 1341 3281 1617 3432 
Q 1894 3584 2278 3584 
Q 2916 3584 3314 3078 
Q 3713 2572 3713 1747 
Q 3713 922 3314 415 
Q 2916 -91 2278 -91 
Q 1894 -91 1617 61 
Q 1341 213 1159 525 
z
M 3116 1747 
Q 3116 2381 2855 2742 
Q 2594 3103 2138 3103 
Q 1681 3103 1420 2742 
Q 1159 2381 1159 1747 
Q 1159 1113 1420 752 
Q 1681 391 2138 391 
Q 2594 391 2855 752 
Q 3116 1113 3116 1747 
z
" transform="scale(0.015625)"/>
     </defs>
     <use xlink:href="#DejaVuSans-24"/>
     <use xlink:href="#DejaVuSans-46" transform="translate(66.65625 0)"/>
     <use xlink:href="#DejaVuSans-58" transform="translate(121.640625 0)"/>
     <use xlink:href="#DejaVuSans-57" transform="translate(185.015625 0)"/>
     <use xlink:href="#DejaVuSans-48" transform="translate(224.21875 0)"/>
     <use xlink:href="#DejaVuSans-3" transform="translate(285.75 0)"/>
     <use xlink:href="#DejaVuSans-56" transform="translate(317.53125 0)"/>
     <use xlink:href="#DejaVuSans-57" transform="translate(369.625 0)"/>
     <use xlink:href="#DejaVuSans-48" transform="translate(408.828125 0)"/>
     <use xlink:href="#DejaVuSans-48" transform="translate(470.359375 0)"/>
     <use xlink:href="#DejaVuSans-53" transform="translate(531.890625 0)"/>
    </g>
    <!-- True MTD L2; closest L3 -->
    <g transform="translate(854.438391 88.237273) scale(0.1 -0.1)">
     <use xlink:href="#DejaVuSans-37"/>
     <use xlink:href="#DejaVuSans-55" transform="translate(46.375 0)"/>
     <use xlink:href="#DejaVuSans-58" transform="translate(87.484375 0)"/>
     <use xlink:href="#DejaVuSans-48" transform="translate(150.859375 0)"/>
     <use xlink:href="#DejaVuSans-3" transform="translate(212.390625 0)"/>
     <use xlink:href="#DejaVuSans-30" transform="translate(244.171875 0)"/>
     <use xlink:href="#DejaVuSans-37" transform="translate(330.453125 0)"/>
     <use xlink:href="#DejaVuSans-27" transform="translate(391.53125 0)"/>
     <use xlink:href="#DejaVuSans-3" transform="translate(468.53125 0)"/>
     <use xlink:href="#DejaVuSans-2f" transform="translate(500.3125 0)"/>
     <use xlink:href="#DejaVuSans-15" transform="translate(556.03125 0)"/>
     <use xlink:href="#DejaVuSans-1e" transform="translate(619.65625 0)"/>
     <use xlink:href="#DejaVuSans-3" transform="translate(653.34375 0)"/>
     <use xlink:href="#DejaVuSans-46" transform="translate(685.125 0)"/>
     <use xlink:href="#DejaVuSans-4f" transform="translate(740.109375 0)"/>
     <use xlink:href="#DejaVuSans-52" transform="translate(767.890625 0)"/>
     <use xlink:href="#DejaVuSans-56" transform="translate(829.078125 0)"/>
     <use xlink:href="#DejaVuSans-48" transform="translate(881.171875 0)"/>
     <use xlink:href="#DejaVuSans-56" transform="translate(942.703125 0)"/>
     <use xlink:href="#DejaVuSans-57" transform="translate(994.796875 0)"/>
     <use xlink:href="#DejaVuSans-3" transform="translate(1034 0)"/>
     <use xlink:href="#DejaVuSans-2f" transform="translate(1065.78125 0)"/>
     <use xlink:href="#DejaVuSans-16" transform="translate(1121.5 0)"/>
    </g>
   </g>
  </g>
  <g id="axes_5">
   <g id="patch_42">
    <path d="M 1045.638406 237.556094 
L 1280.925937 237.556094 
L 1280.925937 94.237273 
L 1045.638406 94.237273 
z
" style="fill: #ffffff"/>
   </g>
   <g id="patch_43">
    <path d="M 1056.333294 237.556094 
L 1091.98292 237.556094 
L 1091.98292 237.556094 
L 1056.333294 237.556094 
z
" clip-path="url(#p8bd2724a51)" style="fill: #8ab6d6; stroke: #ffffff; stroke-linejoin: miter"/>
   </g>
   <g id="patch_44">
    <path d="M 1100.895326 237.556094 
L 1136.544952 237.556094 
L 1136.544952 232.539935 
L 1100.895326 232.539935 
z
" clip-path="url(#p8bd2724a51)" style="fill: #8ab6d6; stroke: #ffffff; stroke-linejoin: miter"/>
   </g>
   <g id="patch_45">
    <path d="M 1145.457359 237.556094 
L 1181.106985 237.556094 
L 1181.106985 206.742547 
L 1145.457359 206.742547 
z
" clip-path="url(#p8bd2724a51)" style="fill: #8ab6d6; stroke: #ffffff; stroke-linejoin: miter"/>
   </g>
   <g id="patch_46">
    <path d="M 1190.019391 237.556094 
L 1225.669017 237.556094 
L 1225.669017 182.378348 
L 1190.019391 182.378348 
z
" clip-path="url(#p8bd2724a51)" style="fill: #3ca370; stroke: #ffffff; stroke-linejoin: miter"/>
   </g>
   <g id="patch_47">
    <path d="M 1234.581424 237.556094 
L 1270.23105 237.556094 
L 1270.23105 185.244724 
L 1234.581424 185.244724 
z
" clip-path="url(#p8bd2724a51)" style="fill: #e76f51; stroke: #ffffff; stroke-linejoin: miter"/>
   </g>
   <g id="matplotlib.axis_9">
    <g id="xtick_21">
     <g id="line2d_75">
      <g>
       <use xlink:href="#m6c164852e8" x="1074.158107" y="237.556094" style="stroke: #000000; stroke-width: 0.8"/>
      </g>
     </g>
     <g id="text_32">
      <!-- L0 -->
      <g transform="translate(1068.19092 253.154727) scale(0.1 -0.1)">
       <use xlink:href="#DejaVuSans-2f"/>
       <use xlink:href="#DejaVuSans-13" transform="translate(55.71875 0)"/>
      </g>
      <!-- 5x4 -->
      <g transform="translate(1064.836232 265.15668) scale(0.1 -0.1)">
       <use xlink:href="#DejaVuSans-18"/>
       <use xlink:href="#DejaVuSans-5b" transform="translate(63.625 0)"/>
       <use xlink:href="#DejaVuSans-17" transform="translate(122.8125 0)"/>
      </g>
     </g>
    </g>
    <g id="xtick_22">
     <g id="line2d_76">
      <g>
       <use xlink:href="#m6c164852e8" x="1118.720139" y="237.556094" style="stroke: #000000; stroke-width: 0.8"/>
      </g>
     </g>
     <g id="text_33">
      <!-- L1 -->
      <g transform="translate(1112.752952 253.154727) scale(0.1 -0.1)">
       <use xlink:href="#DejaVuSans-2f"/>
       <use xlink:href="#DejaVuSans-14" transform="translate(55.71875 0)"/>
      </g>
      <!-- 5x5 -->
      <g transform="translate(1109.398264 265.15668) scale(0.1 -0.1)">
       <use xlink:href="#DejaVuSans-18"/>
       <use xlink:href="#DejaVuSans-5b" transform="translate(63.625 0)"/>
       <use xlink:href="#DejaVuSans-18" transform="translate(122.8125 0)"/>
      </g>
     </g>
    </g>
    <g id="xtick_23">
     <g id="line2d_77">
      <g>
       <use xlink:href="#m6c164852e8" x="1163.282172" y="237.556094" style="stroke: #000000; stroke-width: 0.8"/>
      </g>
     </g>
     <g id="text_34">
      <!-- L2 -->
      <g transform="translate(1157.314984 253.154727) scale(0.1 -0.1)">
       <use xlink:href="#DejaVuSans-2f"/>
       <use xlink:href="#DejaVuSans-15" transform="translate(55.71875 0)"/>
      </g>
      <!-- 5x6 -->
      <g transform="translate(1153.960297 265.15668) scale(0.1 -0.1)">
       <use xlink:href="#DejaVuSans-18"/>
       <use xlink:href="#DejaVuSans-5b" transform="translate(63.625 0)"/>
       <use xlink:href="#DejaVuSans-19" transform="translate(122.8125 0)"/>
      </g>
     </g>
    </g>
    <g id="xtick_24">
     <g id="line2d_78">
      <g>
       <use xlink:href="#m6c164852e8" x="1207.844204" y="237.556094" style="stroke: #000000; stroke-width: 0.8"/>
      </g>
     </g>
     <g id="text_35">
      <!-- L3 -->
      <g transform="translate(1201.877017 253.154727) scale(0.1 -0.1)">
       <use xlink:href="#DejaVuSans-2f"/>
       <use xlink:href="#DejaVuSans-16" transform="translate(55.71875 0)"/>
      </g>
      <!-- 5x7 -->
      <g transform="translate(1198.522329 265.15668) scale(0.1 -0.1)">
       <use xlink:href="#DejaVuSans-18"/>
       <use xlink:href="#DejaVuSans-5b" transform="translate(63.625 0)"/>
       <use xlink:href="#DejaVuSans-1a" transform="translate(122.8125 0)"/>
      </g>
     </g>
    </g>
    <g id="xtick_25">
     <g id="line2d_79">
      <g>
       <use xlink:href="#m6c164852e8" x="1252.406237" y="237.556094" style="stroke: #000000; stroke-width: 0.8"/>
      </g>
     </g>
     <g id="text_36">
      <!-- L4 -->
      <g transform="translate(1246.439049 253.154727) scale(0.1 -0.1)">
       <use xlink:href="#DejaVuSans-2f"/>
       <use xlink:href="#DejaVuSans-17" transform="translate(55.71875 0)"/>
      </g>
      <!-- 5x8 -->
      <g transform="translate(1243.084362 265.15668) scale(0.1 -0.1)">
       <use xlink:href="#DejaVuSans-18"/>
       <use xlink:href="#DejaVuSans-5b" transform="translate(63.625 0)"/>
       <use xlink:href="#DejaVuSans-1b" transform="translate(122.8125 0)"/>
      </g>
     </g>
    </g>
   </g>
   <g id="matplotlib.axis_10">
    <g id="ytick_25">
     <g id="line2d_80">
      <path d="M 1045.638406 237.556094 
L 1280.925937 237.556094 
" clip-path="url(#p8bd2724a51)" style="fill: none; stroke: #b0b0b0; stroke-opacity: 0.25; stroke-width: 0.8; stroke-linecap: square"/>
     </g>
     <g id="line2d_81">
      <g>
       <use xlink:href="#m8f926a991b" x="1045.638406" y="237.556094" style="stroke: #000000; stroke-width: 0.8"/>
      </g>
     </g>
    </g>
    <g id="ytick_26">
     <g id="line2d_82">
      <path d="M 1045.638406 208.89233 
L 1280.925937 208.89233 
" clip-path="url(#p8bd2724a51)" style="fill: none; stroke: #b0b0b0; stroke-opacity: 0.25; stroke-width: 0.8; stroke-linecap: square"/>
     </g>
     <g id="line2d_83">
      <g>
       <use xlink:href="#m8f926a991b" x="1045.638406" y="208.89233" style="stroke: #000000; stroke-width: 0.8"/>
      </g>
     </g>
    </g>
    <g id="ytick_27">
     <g id="line2d_84">
      <path d="M 1045.638406 180.228566 
L 1280.925937 180.228566 
" clip-path="url(#p8bd2724a51)" style="fill: none; stroke: #b0b0b0; stroke-opacity: 0.25; stroke-width: 0.8; stroke-linecap: square"/>
     </g>
     <g id="line2d_85">
      <g>
       <use xlink:href="#m8f926a991b" x="1045.638406" y="180.228566" style="stroke: #000000; stroke-width: 0.8"/>
      </g>
     </g>
    </g>
    <g id="ytick_28">
     <g id="line2d_86">
      <path d="M 1045.638406 151.564802 
L 1280.925937 151.564802 
" clip-path="url(#p8bd2724a51)" style="fill: none; stroke: #b0b0b0; stroke-opacity: 0.25; stroke-width: 0.8; stroke-linecap: square"/>
     </g>
     <g id="line2d_87">
      <g>
       <use xlink:href="#m8f926a991b" x="1045.638406" y="151.564802" style="stroke: #000000; stroke-width: 0.8"/>
      </g>
     </g>
    </g>
    <g id="ytick_29">
     <g id="line2d_88">
      <path d="M 1045.638406 122.901038 
L 1280.925937 122.901038 
" clip-path="url(#p8bd2724a51)" style="fill: none; stroke: #b0b0b0; stroke-opacity: 0.25; stroke-width: 0.8; stroke-linecap: square"/>
     </g>
     <g id="line2d_89">
      <g>
       <use xlink:href="#m8f926a991b" x="1045.638406" y="122.901038" style="stroke: #000000; stroke-width: 0.8"/>
      </g>
     </g>
    </g>
    <g id="ytick_30">
     <g id="line2d_90">
      <path d="M 1045.638406 94.237273 
L 1280.925937 94.237273 
" clip-path="url(#p8bd2724a51)" style="fill: none; stroke: #b0b0b0; stroke-opacity: 0.25; stroke-width: 0.8; stroke-linecap: square"/>
     </g>
     <g id="line2d_91">
      <g>
       <use xlink:href="#m8f926a991b" x="1045.638406" y="94.237273" style="stroke: #000000; stroke-width: 0.8"/>
      </g>
     </g>
    </g>
   </g>
   <g id="line2d_92">
    <path d="M 1207.844204 237.556094 
L 1207.844204 94.237273 
" clip-path="url(#p8bd2724a51)" style="fill: none; stroke-dasharray: 4.44,1.92; stroke-dashoffset: 0; stroke: #000000; stroke-width: 1.2"/>
   </g>
   <g id="patch_48">
    <path d="M 1045.638406 237.556094 
L 1045.638406 94.237273 
" style="fill: none; stroke: #000000; stroke-width: 0.8; stroke-linejoin: miter; stroke-linecap: square"/>
   </g>
   <g id="patch_49">
    <path d="M 1280.925937 237.556094 
L 1280.925937 94.237273 
" style="fill: none; stroke: #000000; stroke-width: 0.8; stroke-linejoin: miter; stroke-linecap: square"/>
   </g>
   <g id="patch_50">
    <path d="M 1045.638406 237.556094 
L 1280.925937 237.556094 
" style="fill: none; stroke: #000000; stroke-width: 0.8; stroke-linejoin: miter; stroke-linecap: square"/>
   </g>
   <g id="patch_51">
    <path d="M 1045.638406 94.237273 
L 1280.925937 94.237273 
" style="fill: none; stroke: #000000; stroke-width: 0.8; stroke-linejoin: miter; stroke-linecap: square"/>
   </g>
   <g id="text_37">
    <!-- Acute shallow -->
    <g transform="translate(1128.641547 76.234539) scale(0.1 -0.1)">
     <use xlink:href="#DejaVuSans-24"/>
     <use xlink:href="#DejaVuSans-46" transform="translate(66.65625 0)"/>
     <use xlink:href="#DejaVuSans-58" transform="translate(121.640625 0)"/>
     <use xlink:href="#DejaVuSans-57" transform="translate(185.015625 0)"/>
     <use xlink:href="#DejaVuSans-48" transform="translate(224.21875 0)"/>
     <use xlink:href="#DejaVuSans-3" transform="translate(285.75 0)"/>
     <use xlink:href="#DejaVuSans-56" transform="translate(317.53125 0)"/>
     <use xlink:href="#DejaVuSans-4b" transform="translate(369.625 0)"/>
     <use xlink:href="#DejaVuSans-44" transform="translate(433 0)"/>
     <use xlink:href="#DejaVuSans-4f" transform="translate(494.28125 0)"/>
     <use xlink:href="#DejaVuSans-4f" transform="translate(522.0625 0)"/>
     <use xlink:href="#DejaVuSans-52" transform="translate(549.84375 0)"/>
     <use xlink:href="#DejaVuSans-5a" transform="translate(611.03125 0)"/>
    </g>
    <!-- True MTD L3; closest L3 -->
    <g transform="translate(1104.025922 88.237273) scale(0.1 -0.1)">
     <use xlink:href="#DejaVuSans-37"/>
     <use xlink:href="#DejaVuSans-55" transform="translate(46.375 0)"/>
     <use xlink:href="#DejaVuSans-58" transform="translate(87.484375 0)"/>
     <use xlink:href="#DejaVuSans-48" transform="translate(150.859375 0)"/>
     <use xlink:href="#DejaVuSans-3" transform="translate(212.390625 0)"/>
     <use xlink:href="#DejaVuSans-30" transform="translate(244.171875 0)"/>
     <use xlink:href="#DejaVuSans-37" transform="translate(330.453125 0)"/>
     <use xlink:href="#DejaVuSans-27" transform="translate(391.53125 0)"/>
     <use xlink:href="#DejaVuSans-3" transform="translate(468.53125 0)"/>
     <use xlink:href="#DejaVuSans-2f" transform="translate(500.3125 0)"/>
     <use xlink:href="#DejaVuSans-16" transform="translate(556.03125 0)"/>
     <use xlink:href="#DejaVuSans-1e" transform="translate(619.65625 0)"/>
     <use xlink:href="#DejaVuSans-3" transform="translate(653.34375 0)"/>
     <use xlink:href="#DejaVuSans-46" transform="translate(685.125 0)"/>
     <use xlink:href="#DejaVuSans-4f" transform="translate(740.109375 0)"/>
     <use xlink:href="#DejaVuSans-52" transform="translate(767.890625 0)"/>
     <use xlink:href="#DejaVuSans-56" transform="translate(829.078125 0)"/>
     <use xlink:href="#DejaVuSans-48" transform="translate(881.171875 0)"/>
     <use xlink:href="#DejaVuSans-56" transform="translate(942.703125 0)"/>
     <use xlink:href="#DejaVuSans-57" transform="translate(994.796875 0)"/>
     <use xlink:href="#DejaVuSans-3" transform="translate(1034 0)"/>
     <use xlink:href="#DejaVuSans-2f" transform="translate(1065.78125 0)"/>
     <use xlink:href="#DejaVuSans-16" transform="translate(1121.5 0)"/>
    </g>
   </g>
  </g>
  <g id="text_38">
   <!-- Final selected dose distributions — EWOC off; burn-in off -->
   <g transform="translate(419.357344 17.837813) scale(0.14 -0.14)">
    <defs>
     <path id="DejaVuSans-Bold-29" d="M 588 4666 
L 3834 4666 
L 3834 3756 
L 1791 3756 
L 1791 2888 
L 3713 2888 
L 3713 1978 
L 1791 1978 
L 1791 0 
L 588 0 
L 588 4666 
z
" transform="scale(0.015625)"/>
     <path id="DejaVuSans-Bold-4c" d="M 538 3500 
L 1656 3500 
L 1656 0 
L 538 0 
L 538 3500 
z
M 538 4863 
L 1656 4863 
L 1656 3950 
L 538 3950 
L 538 4863 
z
" transform="scale(0.015625)"/>
     <path id="DejaVuSans-Bold-51" d="M 4056 2131 
L 4056 0 
L 2931 0 
L 2931 347 
L 2931 1631 
Q 2931 2084 2911 2256 
Q 2891 2428 2841 2509 
Q 2775 2619 2662 2680 
Q 2550 2741 2406 2741 
Q 2056 2741 1856 2470 
Q 1656 2200 1656 1722 
L 1656 0 
L 538 0 
L 538 3500 
L 1656 3500 
L 1656 2988 
Q 1909 3294 2193 3439 
Q 2478 3584 2822 3584 
Q 3428 3584 3742 3212 
Q 4056 2841 4056 2131 
z
" transform="scale(0.015625)"/>
     <path id="DejaVuSans-Bold-44" d="M 2106 1575 
Q 1756 1575 1579 1456 
Q 1403 1338 1403 1106 
Q 1403 894 1545 773 
Q 1688 653 1941 653 
Q 2256 653 2472 879 
Q 2688 1106 2688 1447 
L 2688 1575 
L 2106 1575 
z
M 3816 1997 
L 3816 0 
L 2688 0 
L 2688 519 
Q 2463 200 2181 54 
Q 1900 -91 1497 -91 
Q 953 -91 614 226 
Q 275 544 275 1050 
Q 275 1666 698 1953 
Q 1122 2241 2028 2241 
L 2688 2241 
L 2688 2328 
Q 2688 2594 2478 2717 
Q 2269 2841 1825 2841 
Q 1466 2841 1156 2769 
Q 847 2697 581 2553 
L 581 3406 
Q 941 3494 1303 3539 
Q 1666 3584 2028 3584 
Q 2975 3584 3395 3211 
Q 3816 2838 3816 1997 
z
" transform="scale(0.015625)"/>
     <path id="DejaVuSans-Bold-4f" d="M 538 4863 
L 1656 4863 
L 1656 0 
L 538 0 
L 538 4863 
z
" transform="scale(0.015625)"/>
     <path id="DejaVuSans-Bold-3" transform="scale(0.015625)"/>
     <path id="DejaVuSans-Bold-56" d="M 3272 3391 
L 3272 2541 
Q 2913 2691 2578 2766 
Q 2244 2841 1947 2841 
Q 1628 2841 1473 2761 
Q 1319 2681 1319 2516 
Q 1319 2381 1436 2309 
Q 1553 2238 1856 2203 
L 2053 2175 
Q 2913 2066 3209 1816 
Q 3506 1566 3506 1031 
Q 3506 472 3093 190 
Q 2681 -91 1863 -91 
Q 1516 -91 1145 -36 
Q 775 19 384 128 
L 384 978 
Q 719 816 1070 734 
Q 1422 653 1784 653 
Q 2113 653 2278 743 
Q 2444 834 2444 1013 
Q 2444 1163 2330 1236 
Q 2216 1309 1875 1350 
L 1678 1375 
Q 931 1469 631 1722 
Q 331 1975 331 2491 
Q 331 3047 712 3315 
Q 1094 3584 1881 3584 
Q 2191 3584 2531 3537 
Q 2872 3491 3272 3391 
z
" transform="scale(0.015625)"/>
     <path id="DejaVuSans-Bold-48" d="M 4031 1759 
L 4031 1441 
L 1416 1441 
Q 1456 1047 1700 850 
Q 1944 653 2381 653 
Q 2734 653 3104 758 
Q 3475 863 3866 1075 
L 3866 213 
Q 3469 63 3072 -14 
Q 2675 -91 2278 -91 
Q 1328 -91 801 392 
Q 275 875 275 1747 
Q 275 2603 792 3093 
Q 1309 3584 2216 3584 
Q 3041 3584 3536 3087 
Q 4031 2591 4031 1759 
z
M 2881 2131 
Q 2881 2450 2695 2645 
Q 2509 2841 2209 2841 
Q 1884 2841 1681 2658 
Q 1478 2475 1428 2131 
L 2881 2131 
z
" transform="scale(0.015625)"/>
     <path id="DejaVuSans-Bold-46" d="M 3366 3391 
L 3366 2478 
Q 3138 2634 2908 2709 
Q 2678 2784 2431 2784 
Q 1963 2784 1702 2511 
Q 1441 2238 1441 1747 
Q 1441 1256 1702 982 
Q 1963 709 2431 709 
Q 2694 709 2930 787 
Q 3166 866 3366 1019 
L 3366 103 
Q 3103 6 2833 -42 
Q 2563 -91 2291 -91 
Q 1344 -91 809 395 
Q 275 881 275 1747 
Q 275 2613 809 3098 
Q 1344 3584 2291 3584 
Q 2566 3584 2833 3536 
Q 3100 3488 3366 3391 
z
" transform="scale(0.015625)"/>
     <path id="DejaVuSans-Bold-57" d="M 1759 4494 
L 1759 3500 
L 2913 3500 
L 2913 2700 
L 1759 2700 
L 1759 1216 
Q 1759 972 1856 886 
Q 1953 800 2241 800 
L 2816 800 
L 2816 0 
L 1856 0 
Q 1194 0 917 276 
Q 641 553 641 1216 
L 641 2700 
L 84 2700 
L 84 3500 
L 641 3500 
L 641 4494 
L 1759 4494 
z
" transform="scale(0.015625)"/>
     <path id="DejaVuSans-Bold-47" d="M 2919 2988 
L 2919 4863 
L 4044 4863 
L 4044 0 
L 2919 0 
L 2919 506 
Q 2688 197 2409 53 
Q 2131 -91 1766 -91 
Q 1119 -91 703 423 
Q 288 938 288 1747 
Q 288 2556 703 3070 
Q 1119 3584 1766 3584 
Q 2128 3584 2408 3439 
Q 2688 3294 2919 2988 
z
M 2181 722 
Q 2541 722 2730 984 
Q 2919 1247 2919 1747 
Q 2919 2247 2730 2509 
Q 2541 2772 2181 2772 
Q 1825 2772 1636 2509 
Q 1447 2247 1447 1747 
Q 1447 1247 1636 984 
Q 1825 722 2181 722 
z
" transform="scale(0.015625)"/>
     <path id="DejaVuSans-Bold-52" d="M 2203 2784 
Q 1831 2784 1636 2517 
Q 1441 2250 1441 1747 
Q 1441 1244 1636 976 
Q 1831 709 2203 709 
Q 2569 709 2762 976 
Q 2956 1244 2956 1747 
Q 2956 2250 2762 2517 
Q 2569 2784 2203 2784 
z
M 2203 3584 
Q 3106 3584 3614 3096 
Q 4122 2609 4122 1747 
Q 4122 884 3614 396 
Q 3106 -91 2203 -91 
Q 1297 -91 786 396 
Q 275 884 275 1747 
Q 275 2609 786 3096 
Q 1297 3584 2203 3584 
z
" transform="scale(0.015625)"/>
     <path id="DejaVuSans-Bold-55" d="M 3138 2547 
Q 2991 2616 2845 2648 
Q 2700 2681 2553 2681 
Q 2122 2681 1889 2404 
Q 1656 2128 1656 1613 
L 1656 0 
L 538 0 
L 538 3500 
L 1656 3500 
L 1656 2925 
Q 1872 3269 2151 3426 
Q 2431 3584 2822 3584 
Q 2878 3584 2943 3579 
Q 3009 3575 3134 3559 
L 3138 2547 
z
" transform="scale(0.015625)"/>
     <path id="DejaVuSans-Bold-45" d="M 2400 722 
Q 2759 722 2948 984 
Q 3138 1247 3138 1747 
Q 3138 2247 2948 2509 
Q 2759 2772 2400 2772 
Q 2041 2772 1848 2508 
Q 1656 2244 1656 1747 
Q 1656 1250 1848 986 
Q 2041 722 2400 722 
z
M 1656 2988 
Q 1888 3294 2169 3439 
Q 2450 3584 2816 3584 
Q 3463 3584 3878 3070 
Q 4294 2556 4294 1747 
Q 4294 938 3878 423 
Q 3463 -91 2816 -91 
Q 2450 -91 2169 54 
Q 1888 200 1656 506 
L 1656 0 
L 538 0 
L 538 4863 
L 1656 4863 
L 1656 2988 
z
" transform="scale(0.015625)"/>
     <path id="DejaVuSans-Bold-58" d="M 500 1363 
L 500 3500 
L 1625 3500 
L 1625 3150 
Q 1625 2866 1622 2436 
Q 1619 2006 1619 1863 
Q 1619 1441 1641 1255 
Q 1663 1069 1716 984 
Q 1784 875 1895 815 
Q 2006 756 2150 756 
Q 2500 756 2700 1025 
Q 2900 1294 2900 1772 
L 2900 3500 
L 4019 3500 
L 4019 0 
L 2900 0 
L 2900 506 
Q 2647 200 2364 54 
Q 2081 -91 1741 -91 
Q 1134 -91 817 281 
Q 500 653 500 1363 
z
" transform="scale(0.015625)"/>
     <path id="DejaVuSans-Bold-af6" d="M 344 2156 
L 6056 2156 
L 6056 1350 
L 344 1350 
L 344 2156 
z
" transform="scale(0.015625)"/>
     <path id="DejaVuSans-Bold-28" d="M 588 4666 
L 3834 4666 
L 3834 3756 
L 1791 3756 
L 1791 2888 
L 3713 2888 
L 3713 1978 
L 1791 1978 
L 1791 909 
L 3903 909 
L 3903 0 
L 588 0 
L 588 4666 
z
" transform="scale(0.015625)"/>
     <path id="DejaVuSans-Bold-3a" d="M 191 4666 
L 1344 4666 
L 2150 1275 
L 2950 4666 
L 4109 4666 
L 4909 1275 
L 5716 4666 
L 6859 4666 
L 5759 0 
L 4372 0 
L 3525 3547 
L 2688 0 
L 1300 0 
L 191 4666 
z
" transform="scale(0.015625)"/>
     <path id="DejaVuSans-Bold-32" d="M 2719 3878 
Q 2169 3878 1866 3472 
Q 1563 3066 1563 2328 
Q 1563 1594 1866 1187 
Q 2169 781 2719 781 
Q 3272 781 3575 1187 
Q 3878 1594 3878 2328 
Q 3878 3066 3575 3472 
Q 3272 3878 2719 3878 
z
M 2719 4750 
Q 3844 4750 4481 4106 
Q 5119 3463 5119 2328 
Q 5119 1197 4481 553 
Q 3844 -91 2719 -91 
Q 1597 -91 958 553 
Q 319 1197 319 2328 
Q 319 3463 958 4106 
Q 1597 4750 2719 4750 
z
" transform="scale(0.015625)"/>
     <path id="DejaVuSans-Bold-26" d="M 4288 256 
Q 3956 84 3597 -3 
Q 3238 -91 2847 -91 
Q 1681 -91 1000 561 
Q 319 1213 319 2328 
Q 319 3447 1000 4098 
Q 1681 4750 2847 4750 
Q 3238 4750 3597 4662 
Q 3956 4575 4288 4403 
L 4288 3438 
Q 3953 3666 3628 3772 
Q 3303 3878 2944 3878 
Q 2300 3878 1931 3465 
Q 1563 3053 1563 2328 
Q 1563 1606 1931 1193 
Q 2300 781 2944 781 
Q 3303 781 3628 887 
Q 3953 994 4288 1222 
L 4288 256 
z
" transform="scale(0.015625)"/>
     <path id="DejaVuSans-Bold-13aa" d="M 2841 4863 
L 2841 4128 
L 2222 4128 
Q 1984 4128 1891 4044 
Q 1797 3956 1797 3744 
L 1797 3500 
L 3078 3500 
L 3078 3744 
Q 3078 4316 3397 4588 
Q 3716 4863 4384 4863 
L 5241 4863 
L 5241 4128 
L 4622 4128 
Q 4384 4128 4291 4044 
Q 4197 3956 4197 3744 
L 4197 3500 
L 5153 3500 
L 5153 2700 
L 4197 2700 
L 4197 0 
L 3078 0 
L 3078 2700 
L 1797 2700 
L 1797 0 
L 678 0 
L 678 2700 
L 122 2700 
L 122 3500 
L 678 3500 
L 678 3744 
Q 678 4316 997 4588 
Q 1316 4863 1984 4863 
L 2841 4863 
z
" transform="scale(0.015625)"/>
     <path id="DejaVuSans-Bold-1e" d="M 716 1209 
L 1844 1209 
L 1844 256 
L 1069 -909 
L 403 -909 
L 716 256 
L 716 1209 
z
M 716 3500 
L 1844 3500 
L 1844 2291 
L 716 2291 
L 716 3500 
z
" transform="scale(0.015625)"/>
     <path id="DejaVuSans-Bold-10" d="M 347 2297 
L 2309 2297 
L 2309 1388 
L 347 1388 
L 347 2297 
z
" transform="scale(0.015625)"/>
    </defs>
    <use xlink:href="#DejaVuSans-Bold-29"/>
    <use xlink:href="#DejaVuSans-Bold-4c" transform="translate(68.3125 0)"/>
    <use xlink:href="#DejaVuSans-Bold-51" transform="translate(102.59375 0)"/>
    <use xlink:href="#DejaVuSans-Bold-44" transform="translate(173.78125 0)"/>
    <use xlink:href="#DejaVuSans-Bold-4f" transform="translate(241.265625 0)"/>
    <use xlink:href="#DejaVuSans-Bold-3" transform="translate(275.546875 0)"/>
    <use xlink:href="#DejaVuSans-Bold-56" transform="translate(310.359375 0)"/>
    <use xlink:href="#DejaVuSans-Bold-48" transform="translate(369.875 0)"/>
    <use xlink:href="#DejaVuSans-Bold-4f" transform="translate(437.703125 0)"/>
    <use xlink:href="#DejaVuSans-Bold-48" transform="translate(471.984375 0)"/>
    <use xlink:href="#DejaVuSans-Bold-46" transform="translate(539.8125 0)"/>
    <use xlink:href="#DejaVuSans-Bold-57" transform="translate(599.09375 0)"/>
    <use xlink:href="#DejaVuSans-Bold-48" transform="translate(646.890625 0)"/>
    <use xlink:href="#DejaVuSans-Bold-47" transform="translate(714.71875 0)"/>
    <use xlink:href="#DejaVuSans-Bold-3" transform="translate(786.296875 0)"/>
    <use xlink:href="#DejaVuSans-Bold-47" transform="translate(821.109375 0)"/>
    <use xlink:href="#DejaVuSans-Bold-52" transform="translate(892.6875 0)"/>
    <use xlink:href="#DejaVuSans-Bold-56" transform="translate(961.390625 0)"/>
    <use xlink:href="#DejaVuSans-Bold-48" transform="translate(1020.90625 0)"/>
    <use xlink:href="#DejaVuSans-Bold-3" transform="translate(1088.734375 0)"/>
    <use xlink:href="#DejaVuSans-Bold-47" transform="translate(1123.546875 0)"/>
    <use xlink:href="#DejaVuSans-Bold-4c" transform="translate(1195.125 0)"/>
    <use xlink:href="#DejaVuSans-Bold-56" transform="translate(1229.40625 0)"/>
    <use xlink:href="#DejaVuSans-Bold-57" transform="translate(1288.921875 0)"/>
    <use xlink:href="#DejaVuSans-Bold-55" transform="translate(1336.71875 0)"/>
    <use xlink:href="#DejaVuSans-Bold-4c" transform="translate(1386.03125 0)"/>
    <use xlink:href="#DejaVuSans-Bold-45" transform="translate(1420.3125 0)"/>
    <use xlink:href="#DejaVuSans-Bold-58" transform="translate(1491.890625 0)"/>
    <use xlink:href="#DejaVuSans-Bold-57" transform="translate(1563.078125 0)"/>
    <use xlink:href="#DejaVuSans-Bold-4c" transform="translate(1610.875 0)"/>
    <use xlink:href="#DejaVuSans-Bold-52" transform="translate(1645.15625 0)"/>
    <use xlink:href="#DejaVuSans-Bold-51" transform="translate(1713.859375 0)"/>
    <use xlink:href="#DejaVuSans-Bold-56" transform="translate(1785.046875 0)"/>
    <use xlink:href="#DejaVuSans-Bold-3" transform="translate(1844.5625 0)"/>
    <use xlink:href="#DejaVuSans-Bold-af6" transform="translate(1879.375 0)"/>
    <use xlink:href="#DejaVuSans-Bold-3" transform="translate(1979.375 0)"/>
    <use xlink:href="#DejaVuSans-Bold-28" transform="translate(2014.1875 0)"/>
    <use xlink:href="#DejaVuSans-Bold-3a" transform="translate(2082.5 0)"/>
    <use xlink:href="#DejaVuSans-Bold-32" transform="translate(2192.796875 0)"/>
    <use xlink:href="#DejaVuSans-Bold-26" transform="translate(2277.8125 0)"/>
    <use xlink:href="#DejaVuSans-Bold-3" transform="translate(2351.203125 0)"/>
    <use xlink:href="#DejaVuSans-Bold-52" transform="translate(2386.015625 0)"/>
    <use xlink:href="#DejaVuSans-Bold-13aa" transform="translate(2454.71875 0)"/>
    <use xlink:href="#DejaVuSans-Bold-1e" transform="translate(2535.71875 0)"/>
    <use xlink:href="#DejaVuSans-Bold-3" transform="translate(2575.703125 0)"/>
    <use xlink:href="#DejaVuSans-Bold-45" transform="translate(2610.515625 0)"/>
    <use xlink:href="#DejaVuSans-Bold-58" transform="translate(2682.09375 0)"/>
    <use xlink:href="#DejaVuSans-Bold-55" transform="translate(2753.28125 0)"/>
    <use xlink:href="#DejaVuSans-Bold-51" transform="translate(2802.59375 0)"/>
    <use xlink:href="#DejaVuSans-Bold-10" transform="translate(2873.78125 0)"/>
    <use xlink:href="#DejaVuSans-Bold-4c" transform="translate(2915.28125 0)"/>
    <use xlink:href="#DejaVuSans-Bold-51" transform="translate(2949.5625 0)"/>
    <use xlink:href="#DejaVuSans-Bold-3" transform="translate(3020.75 0)"/>
    <use xlink:href="#DejaVuSans-Bold-52" transform="translate(3055.5625 0)"/>
    <use xlink:href="#DejaVuSans-Bold-13aa" transform="translate(3124.265625 0)"/>
   </g>
  </g>
  <g id="legend_1">
   <g id="line2d_93">
    <path d="M 606.636406 290.849656 
L 616.636406 290.849656 
L 626.636406 290.849656 
" style="fill: none; stroke-dasharray: 4.44,1.92; stroke-dashoffset: 0; stroke: #000000; stroke-width: 1.2"/>
   </g>
   <g id="text_39">
    <!-- True MTD -->
    <g transform="translate(634.636406 294.349656) scale(0.1 -0.1)">
     <use xlink:href="#DejaVuSans-37"/>
     <use xlink:href="#DejaVuSans-55" transform="translate(46.375 0)"/>
     <use xlink:href="#DejaVuSans-58" transform="translate(87.484375 0)"/>
     <use xlink:href="#DejaVuSans-48" transform="translate(150.859375 0)"/>
     <use xlink:href="#DejaVuSans-3" transform="translate(212.390625 0)"/>
     <use xlink:href="#DejaVuSans-30" transform="translate(244.171875 0)"/>
     <use xlink:href="#DejaVuSans-37" transform="translate(330.453125 0)"/>
     <use xlink:href="#DejaVuSans-27" transform="translate(391.53125 0)"/>
    </g>
   </g>
  </g>
 </g>
 <defs>
  <clipPath id="p4ca81c3091">
   <rect x="47.288281" y="94.237273" width="235.287531" height="143.31882"/>
  </clipPath>
  <clipPath id="p9df068de17">
   <rect x="296.875812" y="94.237273" width="235.287531" height="143.31882"/>
  </clipPath>
  <clipPath id="p13acbb6e2c">
   <rect x="546.463344" y="94.237273" width="235.287531" height="143.31882"/>
  </clipPath>
  <clipPath id="p1e076f6f91">
   <rect x="796.050875" y="94.237273" width="235.287531" height="143.31882"/>
  </clipPath>
  <clipPath id="p8bd2724a51">
   <rect x="1045.638406" y="94.237273" width="235.287531" height="143.31882"/>
  </clipPath>
 </defs>
</svg>
